STARTFONT 2.1
COMMENT 
COMMENT -dylex-crawl-Medium-R-Normal--14-140-75-75-C-140-ISO10646-1
FONT -dylex-crawl-Medium-O-Normal--28-280-75-75-C-280-ISO10646-1
SIZE 28 75 75
FONTBOUNDINGBOX 28 28 0 -6
STARTPROPERTIES 23
X_HEIGHT 12
RESOLUTION_Y 75
CHARSET_ENCODING "1"
FOUNDRY "dylex"
SLANT "O"
ADD_STYLE_NAME ""
FONTNAME_REGISTRY ""
WEIGHT_NAME "Medium"
DESTINATION 1
FAMILY_NAME "crawl"
COPYRIGHT "Public domain font.  Share and enjoy."
PIXEL_SIZE 28
CHARSET_REGISTRY "ISO10646"
CAP_HEIGHT 20
FONT_ASCENT 22
_GBDFED_INFO "Edited with gbdfed 1.6."
RESOLUTION_X 75
POINT_SIZE 280
FONT_DESCENT 6
SETWIDTH_NAME "Normal"
SPACING "C"
AVERAGE_WIDTH 280
DEFAULT_CHAR 0
ENDPROPERTIES
CHARS 347
STARTCHAR char0
ENCODING 0
SWIDTH 1846 0
DWIDTH 28 0
BBX 28 28 0 -6
BITMAP
00000000
00000000
0CCCCCC0
0CCCCCC0
00000030
00000030
0C000000
0C000000
000000C0
000000C0
30000000
30000000
000000C0
000000C0
30000000
30000000
000000C0
000000C0
30000000
30000000
00000300
00000300
C0000000
C0000000
33333300
33333300
00000000
00000000
ENDCHAR
STARTCHAR char1
ENCODING 1
SWIDTH 1846 0
DWIDTH 28 0
BBX 28 28 0 -6
BITMAP
00000000
00000000
00000000
00000000
00000000
00000000
000C0000
000C0000
00330000
00330000
00C0C000
00C0C000
03003000
03003000
00C0C000
00C0C000
00330000
00330000
000C0000
000C0000
00000000
00000000
00000000
00000000
00000000
00000000
00000000
00000000
ENDCHAR
STARTCHAR char2
ENCODING 2
SWIDTH 1846 0
DWIDTH 28 0
BBX 28 28 0 -6
BITMAP
33333330
33333330
CCCCCCC0
CCCCCCC0
33333330
33333330
CCCCCCC0
CCCCCCC0
33333330
33333330
CCCCCCC0
CCCCCCC0
33333330
33333330
CCCCCCC0
CCCCCCC0
33333330
33333330
CCCCCCC0
CCCCCCC0
33333330
33333330
CCCCCCC0
CCCCCCC0
33333330
33333330
CCCCCCC0
CCCCCCC0
ENDCHAR
STARTCHAR char3
ENCODING 3
SWIDTH 1846 0
DWIDTH 28 0
BBX 28 28 0 -6
BITMAP
00000000
00000000
3C3C0000
3C3C0000
3C3C0000
3C3C0000
3FFC0000
3FFC0000
3C3C0000
3C3C0000
3C3C0000
3C3C0000
0003FFC0
0003FFC0
00003C00
00003C00
00003C00
00003C00
00003C00
00003C00
00003C00
00003C00
00000000
00000000
00000000
00000000
00000000
00000000
ENDCHAR
STARTCHAR char4
ENCODING 4
SWIDTH 1846 0
DWIDTH 28 0
BBX 28 28 0 -6
BITMAP
00000000
00000000
3FF00000
3FF00000
3C000000
3C000000
3FC00000
3FC00000
3C000000
3C000000
3C03FF00
3C03FF00
3C03C000
3C03C000
0003FC00
0003FC00
0003C000
0003C000
0003C000
0003C000
0003C000
0003C000
00000000
00000000
00000000
00000000
00000000
00000000
ENDCHAR
STARTCHAR char5
ENCODING 5
SWIDTH 1846 0
DWIDTH 28 0
BBX 28 28 0 -6
BITMAP
00000000
00000000
0FC00000
0FC00000
3C300000
3C300000
3C000000
3C000000
3C000000
3C000000
3C33FC00
3C33FC00
0FC3C300
0FC3C300
0003C300
0003C300
0003FC00
0003FC00
0003CF00
0003CF00
0003C300
0003C300
00000000
00000000
00000000
00000000
00000000
00000000
ENDCHAR
STARTCHAR char6
ENCODING 6
SWIDTH 1846 0
DWIDTH 28 0
BBX 28 28 0 -6
BITMAP
00000000
00000000
3C000000
3C000000
3C000000
3C000000
3C000000
3C000000
3C000000
3C000000
3C03FF00
3C03FF00
3FF3C000
3FF3C000
0003FC00
0003FC00
0003C000
0003C000
0003C000
0003C000
0003C000
0003C000
00000000
00000000
00000000
00000000
00000000
00000000
ENDCHAR
STARTCHAR char7
ENCODING 7
SWIDTH 1846 0
DWIDTH 28 0
BBX 28 28 0 -6
BITMAP
00000000
00000000
03C00000
03C00000
0C300000
0C300000
0C300000
0C300000
03C00000
03C00000
00000000
00000000
00000000
00000000
00000000
00000000
00000000
00000000
00000000
00000000
00000000
00000000
00000000
00000000
00000000
00000000
00000000
00000000
ENDCHAR
STARTCHAR char8
ENCODING 8
SWIDTH 1846 0
DWIDTH 28 0
BBX 28 28 0 -6
BITMAP
00000000
00000000
00000000
00000000
000C0000
000C0000
000C0000
000C0000
000C0000
000C0000
03FFF000
03FFF000
000C0000
000C0000
000C0000
000C0000
000C0000
000C0000
00000000
00000000
03FFF000
03FFF000
00000000
00000000
00000000
00000000
00000000
00000000
ENDCHAR
STARTCHAR char9
ENCODING 9
SWIDTH 1846 0
DWIDTH 28 0
BBX 28 28 0 -6
BITMAP
00000000
00000000
3C0F0000
3C0F0000
3F0F0000
3F0F0000
3FCF0000
3FCF0000
3CFF0000
3CFF0000
3C3FF000
3C3FF000
3C0FF000
3C0FF000
0000F000
0000F000
0000F000
0000F000
0000F000
0000F000
0000FFC0
0000FFC0
00000000
00000000
00000000
00000000
00000000
00000000
ENDCHAR
STARTCHAR char10
ENCODING 10
SWIDTH 1846 0
DWIDTH 28 0
BBX 28 28 0 -6
BITMAP
00000000
00000000
3C0F0000
3C0F0000
3C0F0000
3C0F0000
3C0F0000
3C0F0000
0F3C0000
0F3C0000
03FFFF00
03FFFF00
00C0F000
00C0F000
0000F000
0000F000
0000F000
0000F000
0000F000
0000F000
0000F000
0000F000
00000000
00000000
00000000
00000000
00000000
00000000
ENDCHAR
STARTCHAR char11
ENCODING 11
SWIDTH 1846 0
DWIDTH 28 0
BBX 28 28 0 -6
BITMAP
000C0000
000C0000
000C0000
000C0000
000C0000
000C0000
000C0000
000C0000
000C0000
000C0000
000C0000
000C0000
FFFC0000
FFFC0000
00000000
00000000
00000000
00000000
00000000
00000000
00000000
00000000
00000000
00000000
00000000
00000000
00000000
00000000
ENDCHAR
STARTCHAR char12
ENCODING 12
SWIDTH 1846 0
DWIDTH 28 0
BBX 28 28 0 -6
BITMAP
00000000
00000000
00000000
00000000
00000000
00000000
00000000
00000000
00000000
00000000
00000000
00000000
FFFC0000
FFFC0000
000C0000
000C0000
000C0000
000C0000
000C0000
000C0000
000C0000
000C0000
000C0000
000C0000
000C0000
000C0000
000C0000
000C0000
ENDCHAR
STARTCHAR char13
ENCODING 13
SWIDTH 1846 0
DWIDTH 28 0
BBX 28 28 0 -6
BITMAP
00000000
00000000
00000000
00000000
00000000
00000000
00000000
00000000
00000000
00000000
00000000
00000000
000FFFF0
000FFFF0
000C0000
000C0000
000C0000
000C0000
000C0000
000C0000
000C0000
000C0000
000C0000
000C0000
000C0000
000C0000
000C0000
000C0000
ENDCHAR
STARTCHAR char14
ENCODING 14
SWIDTH 1846 0
DWIDTH 28 0
BBX 28 28 0 -6
BITMAP
000C0000
000C0000
000C0000
000C0000
000C0000
000C0000
000C0000
000C0000
000C0000
000C0000
000C0000
000C0000
000FFFF0
000FFFF0
00000000
00000000
00000000
00000000
00000000
00000000
00000000
00000000
00000000
00000000
00000000
00000000
00000000
00000000
ENDCHAR
STARTCHAR char15
ENCODING 15
SWIDTH 1846 0
DWIDTH 28 0
BBX 28 28 0 -6
BITMAP
000C0000
000C0000
000C0000
000C0000
000C0000
000C0000
000C0000
000C0000
000C0000
000C0000
000C0000
000C0000
FFFFFFF0
FFFFFFF0
000C0000
000C0000
000C0000
000C0000
000C0000
000C0000
000C0000
000C0000
000C0000
000C0000
000C0000
000C0000
000C0000
000C0000
ENDCHAR
STARTCHAR char16
ENCODING 16
SWIDTH 1846 0
DWIDTH 28 0
BBX 28 28 0 -6
BITMAP
FFFFFFF0
FFFFFFF0
00000000
00000000
00000000
00000000
00000000
00000000
00000000
00000000
00000000
00000000
00000000
00000000
00000000
00000000
00000000
00000000
00000000
00000000
00000000
00000000
00000000
00000000
00000000
00000000
00000000
00000000
ENDCHAR
STARTCHAR char17
ENCODING 17
SWIDTH 1846 0
DWIDTH 28 0
BBX 28 28 0 -6
BITMAP
00000000
00000000
00000000
00000000
00000000
00000000
FFFFFFF0
FFFFFFF0
00000000
00000000
00000000
00000000
00000000
00000000
00000000
00000000
00000000
00000000
00000000
00000000
00000000
00000000
00000000
00000000
00000000
00000000
00000000
00000000
ENDCHAR
STARTCHAR char18
ENCODING 18
SWIDTH 1846 0
DWIDTH 28 0
BBX 28 28 0 -6
BITMAP
00000000
00000000
00000000
00000000
00000000
00000000
00000000
00000000
00000000
00000000
00000000
00000000
FFFFFFF0
FFFFFFF0
00000000
00000000
00000000
00000000
00000000
00000000
00000000
00000000
00000000
00000000
00000000
00000000
00000000
00000000
ENDCHAR
STARTCHAR char19
ENCODING 19
SWIDTH 1846 0
DWIDTH 28 0
BBX 28 28 0 -6
BITMAP
00000000
00000000
00000000
00000000
00000000
00000000
00000000
00000000
00000000
00000000
00000000
00000000
00000000
00000000
00000000
00000000
00000000
00000000
00000000
00000000
FFFFFFF0
FFFFFFF0
00000000
00000000
00000000
00000000
00000000
00000000
ENDCHAR
STARTCHAR char20
ENCODING 20
SWIDTH 1846 0
DWIDTH 28 0
BBX 28 28 0 -6
BITMAP
00000000
00000000
00000000
00000000
00000000
00000000
00000000
00000000
00000000
00000000
00000000
00000000
00000000
00000000
00000000
00000000
00000000
00000000
00000000
00000000
00000000
00000000
00000000
00000000
00000000
00000000
FFFFFFF0
FFFFFFF0
ENDCHAR
STARTCHAR char21
ENCODING 21
SWIDTH 1846 0
DWIDTH 28 0
BBX 28 28 0 -6
BITMAP
000C0000
000C0000
000C0000
000C0000
000C0000
000C0000
000C0000
000C0000
000C0000
000C0000
000C0000
000C0000
000FFFF0
000FFFF0
000C0000
000C0000
000C0000
000C0000
000C0000
000C0000
000C0000
000C0000
000C0000
000C0000
000C0000
000C0000
000C0000
000C0000
ENDCHAR
STARTCHAR char22
ENCODING 22
SWIDTH 1846 0
DWIDTH 28 0
BBX 28 28 0 -6
BITMAP
000C0000
000C0000
000C0000
000C0000
000C0000
000C0000
000C0000
000C0000
000C0000
000C0000
000C0000
000C0000
FFFC0000
FFFC0000
000C0000
000C0000
000C0000
000C0000
000C0000
000C0000
000C0000
000C0000
000C0000
000C0000
000C0000
000C0000
000C0000
000C0000
ENDCHAR
STARTCHAR char23
ENCODING 23
SWIDTH 1846 0
DWIDTH 28 0
BBX 28 28 0 -6
BITMAP
000C0000
000C0000
000C0000
000C0000
000C0000
000C0000
000C0000
000C0000
000C0000
000C0000
000C0000
000C0000
FFFFFFF0
FFFFFFF0
00000000
00000000
00000000
00000000
00000000
00000000
00000000
00000000
00000000
00000000
00000000
00000000
00000000
00000000
ENDCHAR
STARTCHAR char24
ENCODING 24
SWIDTH 1846 0
DWIDTH 28 0
BBX 28 28 0 -6
BITMAP
00000000
00000000
00000000
00000000
00000000
00000000
00000000
00000000
00000000
00000000
00000000
00000000
FFFFFFF0
FFFFFFF0
000C0000
000C0000
000C0000
000C0000
000C0000
000C0000
000C0000
000C0000
000C0000
000C0000
000C0000
000C0000
000C0000
000C0000
ENDCHAR
STARTCHAR char25
ENCODING 25
SWIDTH 1846 0
DWIDTH 28 0
BBX 28 28 0 -6
BITMAP
000C0000
000C0000
000C0000
000C0000
000C0000
000C0000
000C0000
000C0000
000C0000
000C0000
000C0000
000C0000
000C0000
000C0000
000C0000
000C0000
000C0000
000C0000
000C0000
000C0000
000C0000
000C0000
000C0000
000C0000
000C0000
000C0000
000C0000
000C0000
ENDCHAR
STARTCHAR char26
ENCODING 26
SWIDTH 1846 0
DWIDTH 28 0
BBX 28 28 0 -6
BITMAP
00000000
00000000
00000000
00000000
000003F0
000003F0
0000FC00
0000FC00
00FF0000
00FF0000
3FC00000
3FC00000
00FC0000
00FC0000
0003F000
0003F000
00003F00
00003F00
00000000
00000000
FFFFFF00
FFFFFF00
00000000
00000000
00000000
00000000
00000000
00000000
ENDCHAR
STARTCHAR char27
ENCODING 27
SWIDTH 1846 0
DWIDTH 28 0
BBX 28 28 0 -6
BITMAP
00000000
00000000
00000000
00000000
0FC00000
0FC00000
003F0000
003F0000
0000FC00
0000FC00
00000FC0
00000FC0
0003F000
0003F000
03FC0000
03FC0000
FF000000
FF000000
00000000
00000000
FFFFFF00
FFFFFF00
00000000
00000000
00000000
00000000
00000000
00000000
ENDCHAR
STARTCHAR char28
ENCODING 28
SWIDTH 1846 0
DWIDTH 28 0
BBX 28 28 0 -6
BITMAP
00000000
00000000
00000000
00000000
00000000
00000000
00000000
00000000
3FFFFFC0
3FFFFFC0
03C03C00
03C03C00
0F00F000
0F00F000
0F00F000
0F00F000
0F00F000
0F00F000
3C03C000
3C03C000
3C03C000
3C03C000
00000000
00000000
00000000
00000000
00000000
00000000
ENDCHAR
STARTCHAR char29
ENCODING 29
SWIDTH 1846 0
DWIDTH 28 0
BBX 28 28 0 -6
BITMAP
00000000
00000000
00000000
00000000
00000F00
00000F00
00003C00
00003C00
03FFFFC0
03FFFFC0
0003C000
0003C000
000F0000
000F0000
003C0000
003C0000
3FFFFC00
3FFFFC00
03C00000
03C00000
0F000000
0F000000
00000000
00000000
00000000
00000000
00000000
00000000
ENDCHAR
STARTCHAR char30
ENCODING 30
SWIDTH 1846 0
DWIDTH 28 0
BBX 28 28 0 -6
BITMAP
00000000
00000000
000FFC00
000FFC00
003C0F00
003C0F00
003C0000
003C0000
00F00000
00F00000
00F00000
00F00000
3FFFC000
3FFFC000
03C00000
03C00000
0F000000
0F000000
3FF0F000
3FF0F000
3C3FC000
3C3FC000
00000000
00000000
00000000
00000000
00000000
00000000
ENDCHAR
STARTCHAR char31
ENCODING 31
SWIDTH 1846 0
DWIDTH 28 0
BBX 28 28 0 -6
BITMAP
00000000
00000000
00000000
00000000
00000000
00000000
00000000
00000000
00000000
00000000
00000000
00000000
003FC000
003FC000
00000000
00000000
00000000
00000000
00000000
00000000
00000000
00000000
00000000
00000000
00000000
00000000
00000000
00000000
ENDCHAR
STARTCHAR char32
ENCODING 32
SWIDTH 1846 0
DWIDTH 28 0
BBX 28 28 0 -6
BITMAP
00000000
00000000
00000000
00000000
00000000
00000000
00000000
00000000
00000000
00000000
00000000
00000000
00000000
00000000
00000000
00000000
00000000
00000000
00000000
00000000
00000000
00000000
00000000
00000000
00000000
00000000
00000000
00000000
ENDCHAR
STARTCHAR char33
ENCODING 33
SWIDTH 1846 0
DWIDTH 28 0
BBX 28 28 0 -6
BITMAP
00000000
00000000
0003C000
0003C000
0003C000
0003C000
0003C000
0003C000
000F0000
000F0000
000F0000
000F0000
000F0000
000F0000
000F0000
000F0000
00000000
00000000
003C0000
003C0000
003C0000
003C0000
00000000
00000000
00000000
00000000
00000000
00000000
ENDCHAR
STARTCHAR char34
ENCODING 34
SWIDTH 1846 0
DWIDTH 28 0
BBX 28 28 0 -6
BITMAP
00000000
00000000
00F0F000
00F0F000
00F0F000
00F0F000
03C3C000
03C3C000
00C30000
00C30000
00000000
00000000
00000000
00000000
00000000
00000000
00000000
00000000
00000000
00000000
00000000
00000000
00000000
00000000
00000000
00000000
00000000
00000000
ENDCHAR
STARTCHAR char35
ENCODING 35
SWIDTH 1846 0
DWIDTH 28 0
BBX 28 28 0 -6
BITMAP
00000000
00000000
003C3C00
003C3C00
003C3C00
003C3C00
0FFFFFC0
0FFFFFC0
00F0F000
00F0F000
00F0F000
00F0F000
00F0F000
00F0F000
00F0F000
00F0F000
3FFFFF00
3FFFFF00
03C3C000
03C3C000
03C3C000
03C3C000
00000000
00000000
00000000
00000000
00000000
00000000
ENDCHAR
STARTCHAR char36
ENCODING 36
SWIDTH 1846 0
DWIDTH 28 0
BBX 28 28 0 -6
BITMAP
00000000
00000000
0003C000
0003C000
00FFFF00
00FFFF00
03C3C3C0
03C3C3C0
0F0F0000
0F0F0000
03FFFC00
03FFFC00
000F0F00
000F0F00
3C0F0F00
3C0F0F00
3C3C3C00
3C3C3C00
0FFFF000
0FFFF000
003C0000
003C0000
00000000
00000000
00000000
00000000
00000000
00000000
ENDCHAR
STARTCHAR char37
ENCODING 37
SWIDTH 1846 0
DWIDTH 28 0
BBX 28 28 0 -6
BITMAP
00000000
00000000
03C003C0
03C003C0
0C300F00
0C300F00
0C303C00
0C303C00
03C3F000
03C3F000
000F0000
000F0000
003C0000
003C0000
03F0F000
03F0F000
0F030C00
0F030C00
3C030C00
3C030C00
F000F000
F000F000
00000000
00000000
00000000
00000000
00000000
00000000
ENDCHAR
STARTCHAR char38
ENCODING 38
SWIDTH 1846 0
DWIDTH 28 0
BBX 28 28 0 -6
BITMAP
00000000
00000000
000FF000
000FF000
003C3C00
003C3C00
003C3C00
003C3C00
003CF000
003CF000
003FC000
003FC000
003FC000
003FC000
03F0FF00
03F0FF00
0F00F000
0F00F000
0F03FC00
0F03FC00
03FF0F00
03FF0F00
00000000
00000000
00000000
00000000
00000000
00000000
ENDCHAR
STARTCHAR char39
ENCODING 39
SWIDTH 1846 0
DWIDTH 28 0
BBX 28 28 0 -6
BITMAP
00000000
00000000
000F0000
000F0000
000F0000
000F0000
003C0000
003C0000
00300000
00300000
00000000
00000000
00000000
00000000
00000000
00000000
00000000
00000000
00000000
00000000
00000000
00000000
00000000
00000000
00000000
00000000
00000000
00000000
ENDCHAR
STARTCHAR char40
ENCODING 40
SWIDTH 1846 0
DWIDTH 28 0
BBX 28 28 0 -6
BITMAP
00000000
00000000
0000F000
0000F000
0003C000
0003C000
000F0000
000F0000
003C0000
003C0000
00F00000
00F00000
00F00000
00F00000
00F00000
00F00000
00F00000
00F00000
00F00000
00F00000
003C0000
003C0000
000F0000
000F0000
00000000
00000000
00000000
00000000
ENDCHAR
STARTCHAR char41
ENCODING 41
SWIDTH 1846 0
DWIDTH 28 0
BBX 28 28 0 -6
BITMAP
00000000
00000000
000F0000
000F0000
0003C000
0003C000
0000F000
0000F000
0000F000
0000F000
0000F000
0000F000
0000F000
0000F000
0000F000
0000F000
0003C000
0003C000
000F0000
000F0000
003C0000
003C0000
00F00000
00F00000
00000000
00000000
00000000
00000000
ENDCHAR
STARTCHAR char42
ENCODING 42
SWIDTH 1846 0
DWIDTH 28 0
BBX 28 28 0 -6
BITMAP
00000000
00000000
00000000
00000000
00000000
00000000
0003C000
0003C000
00F3CF00
00F3CF00
00FFFC00
00FFFC00
003FC000
003FC000
03FFF000
03FFF000
0F3CF000
0F3CF000
003C0000
003C0000
00000000
00000000
00000000
00000000
00000000
00000000
00000000
00000000
ENDCHAR
STARTCHAR char43
ENCODING 43
SWIDTH 1846 0
DWIDTH 28 0
BBX 28 28 0 -6
BITMAP
00000000
00000000
00000000
00000000
00000000
00000000
000F0000
000F0000
000F0000
000F0000
000F0000
000F0000
0FFFFC00
0FFFFC00
003C0000
003C0000
003C0000
003C0000
003C0000
003C0000
00000000
00000000
00000000
00000000
00000000
00000000
00000000
00000000
ENDCHAR
STARTCHAR char44
ENCODING 44
SWIDTH 1846 0
DWIDTH 28 0
BBX 28 28 0 -6
BITMAP
00000000
00000000
00000000
00000000
00000000
00000000
00000000
00000000
00000000
00000000
00000000
00000000
00000000
00000000
00000000
00000000
0003C000
0003C000
0003C000
0003C000
000F0000
000F0000
003C0000
003C0000
00000000
00000000
00000000
00000000
ENDCHAR
STARTCHAR char45
ENCODING 45
SWIDTH 1846 0
DWIDTH 28 0
BBX 28 28 0 -6
BITMAP
00000000
00000000
00000000
00000000
00000000
00000000
00000000
00000000
00000000
00000000
00000000
00000000
03FFFC00
03FFFC00
00000000
00000000
00000000
00000000
00000000
00000000
00000000
00000000
00000000
00000000
00000000
00000000
00000000
00000000
ENDCHAR
STARTCHAR char46
ENCODING 46
SWIDTH 1846 0
DWIDTH 28 0
BBX 28 28 0 -6
BITMAP
00000000
00000000
00000000
00000000
00000000
00000000
00000000
00000000
00000000
00000000
00000000
00000000
00000000
00000000
00000000
00000000
00000000
00000000
000F0000
000F0000
000F0000
000F0000
00000000
00000000
00000000
00000000
00000000
00000000
ENDCHAR
STARTCHAR char47
ENCODING 47
SWIDTH 1846 0
DWIDTH 28 0
BBX 28 28 0 -6
BITMAP
00000000
00000000
000003C0
000003C0
00000F00
00000F00
00003C00
00003C00
0003F000
0003F000
000F0000
000F0000
003C0000
003C0000
03F00000
03F00000
0F000000
0F000000
3C000000
3C000000
F0000000
F0000000
00000000
00000000
00000000
00000000
00000000
00000000
ENDCHAR
STARTCHAR char48
ENCODING 48
SWIDTH 1846 0
DWIDTH 28 0
BBX 28 28 0 -6
BITMAP
00000000
00000000
003FFC00
003FFC00
00F00F00
00F00F00
03C003C0
03C003C0
0F0003C0
0F0003C0
3C0F03C0
3C0F03C0
3C0F03C0
3C0F03C0
3C000F00
3C000F00
3C003C00
3C003C00
0F00F000
0F00F000
03FFC000
03FFC000
00000000
00000000
00000000
00000000
00000000
00000000
ENDCHAR
STARTCHAR char49
ENCODING 49
SWIDTH 1846 0
DWIDTH 28 0
BBX 28 28 0 -6
BITMAP
00000000
00000000
000FC000
000FC000
003FC000
003FC000
00F3C000
00F3C000
0003C000
0003C000
000F0000
000F0000
000F0000
000F0000
000F0000
000F0000
003C0000
003C0000
003C0000
003C0000
3FFFFC00
3FFFFC00
00000000
00000000
00000000
00000000
00000000
00000000
ENDCHAR
STARTCHAR char50
ENCODING 50
SWIDTH 1846 0
DWIDTH 28 0
BBX 28 28 0 -6
BITMAP
00000000
00000000
00FFFF00
00FFFF00
03C003C0
03C003C0
0F0000F0
0F0000F0
000003C0
000003C0
00000F00
00000F00
0000F000
0000F000
003F0000
003F0000
03C00000
03C00000
3C000000
3C000000
FFFFFF00
FFFFFF00
00000000
00000000
00000000
00000000
00000000
00000000
ENDCHAR
STARTCHAR char51
ENCODING 51
SWIDTH 1846 0
DWIDTH 28 0
BBX 28 28 0 -6
BITMAP
00000000
00000000
00FFFF00
00FFFF00
03C003C0
03C003C0
0F0000F0
0F0000F0
000003C0
000003C0
000FFF00
000FFF00
00000F00
00000F00
000003C0
000003C0
F0000F00
F0000F00
3C003C00
3C003C00
0FFFF000
0FFFF000
00000000
00000000
00000000
00000000
00000000
00000000
ENDCHAR
STARTCHAR char52
ENCODING 52
SWIDTH 1846 0
DWIDTH 28 0
BBX 28 28 0 -6
BITMAP
00000000
00000000
00000F00
00000F00
0000FF00
0000FF00
003F0F00
003F0F00
03C00F00
03C00F00
3C003C00
3C003C00
3FFFFFC0
3FFFFFC0
00003C00
00003C00
0000F000
0000F000
0000F000
0000F000
0000F000
0000F000
00000000
00000000
00000000
00000000
00000000
00000000
ENDCHAR
STARTCHAR char53
ENCODING 53
SWIDTH 1846 0
DWIDTH 28 0
BBX 28 28 0 -6
BITMAP
00000000
00000000
0FFFFFC0
0FFFFFC0
0F000000
0F000000
0F000000
0F000000
3C000000
3C000000
3FFFFC00
3FFFFC00
00000F00
00000F00
000003C0
000003C0
00000F00
00000F00
F0003C00
F0003C00
3FFFF000
3FFFF000
00000000
00000000
00000000
00000000
00000000
00000000
ENDCHAR
STARTCHAR char54
ENCODING 54
SWIDTH 1846 0
DWIDTH 28 0
BBX 28 28 0 -6
BITMAP
00000000
00000000
00FFFF00
00FFFF00
03C003C0
03C003C0
0F000000
0F000000
3C000000
3C000000
3FFFFC00
3FFFFC00
3C000F00
3C000F00
F00003C0
F00003C0
F0000F00
F0000F00
3C003C00
3C003C00
0FFFF000
0FFFF000
00000000
00000000
00000000
00000000
00000000
00000000
ENDCHAR
STARTCHAR char55
ENCODING 55
SWIDTH 1846 0
DWIDTH 28 0
BBX 28 28 0 -6
BITMAP
00000000
00000000
0FFFFFC0
0FFFFFC0
000003C0
000003C0
00000F00
00000F00
0000FC00
0000FC00
0003C000
0003C000
000F0000
000F0000
00FC0000
00FC0000
03C00000
03C00000
0F000000
0F000000
3C000000
3C000000
00000000
00000000
00000000
00000000
00000000
00000000
ENDCHAR
STARTCHAR char56
ENCODING 56
SWIDTH 1846 0
DWIDTH 28 0
BBX 28 28 0 -6
BITMAP
00000000
00000000
00FFFF00
00FFFF00
03C003C0
03C003C0
0F0003C0
0F0003C0
0F000F00
0F000F00
03FFFC00
03FFFC00
0F000F00
0F000F00
3C0003C0
3C0003C0
F0000F00
F0000F00
3C003C00
3C003C00
0FFFF000
0FFFF000
00000000
00000000
00000000
00000000
00000000
00000000
ENDCHAR
STARTCHAR char57
ENCODING 57
SWIDTH 1846 0
DWIDTH 28 0
BBX 28 28 0 -6
BITMAP
00000000
00000000
00FFFF00
00FFFF00
03C003C0
03C003C0
0F0003C0
0F0003C0
0F0003C0
0F0003C0
03FFFFC0
03FFFFC0
000003C0
000003C0
000003C0
000003C0
00000F00
00000F00
3C003C00
3C003C00
0FFFF000
0FFFF000
00000000
00000000
00000000
00000000
00000000
00000000
ENDCHAR
STARTCHAR char58
ENCODING 58
SWIDTH 1846 0
DWIDTH 28 0
BBX 28 28 0 -6
BITMAP
00000000
00000000
00000000
00000000
00000000
00000000
00000000
00000000
000F0000
000F0000
000F0000
000F0000
00000000
00000000
00000000
00000000
003C0000
003C0000
003C0000
003C0000
00000000
00000000
00000000
00000000
00000000
00000000
00000000
00000000
ENDCHAR
STARTCHAR char59
ENCODING 59
SWIDTH 1846 0
DWIDTH 28 0
BBX 28 28 0 -6
BITMAP
00000000
00000000
00000000
00000000
00000000
00000000
00000000
00000000
0003C000
0003C000
0003C000
0003C000
00000000
00000000
00000000
00000000
000F0000
000F0000
000F0000
000F0000
003C0000
003C0000
00F00000
00F00000
00000000
00000000
00000000
00000000
ENDCHAR
STARTCHAR char60
ENCODING 60
SWIDTH 1846 0
DWIDTH 28 0
BBX 28 28 0 -6
BITMAP
00000000
00000000
00000000
00000000
000003C0
000003C0
00003C00
00003C00
000FC000
000FC000
00FC0000
00FC0000
0F000000
0F000000
00F00000
00F00000
003C0000
003C0000
0003C000
0003C000
00003C00
00003C00
00000000
00000000
00000000
00000000
00000000
00000000
ENDCHAR
STARTCHAR char61
ENCODING 61
SWIDTH 1846 0
DWIDTH 28 0
BBX 28 28 0 -6
BITMAP
00000000
00000000
00000000
00000000
00000000
00000000
00000000
00000000
03FFFFC0
03FFFFC0
00000000
00000000
00000000
00000000
00000000
00000000
3FFFFC00
3FFFFC00
00000000
00000000
00000000
00000000
00000000
00000000
00000000
00000000
00000000
00000000
ENDCHAR
STARTCHAR char62
ENCODING 62
SWIDTH 1846 0
DWIDTH 28 0
BBX 28 28 0 -6
BITMAP
00000000
00000000
00000000
00000000
03C00000
03C00000
003C0000
003C0000
0003C000
0003C000
0000F000
0000F000
00000F00
00000F00
0003F000
0003F000
003F0000
003F0000
03C00000
03C00000
3C000000
3C000000
00000000
00000000
00000000
00000000
00000000
00000000
ENDCHAR
STARTCHAR char63
ENCODING 63
SWIDTH 1846 0
DWIDTH 28 0
BBX 28 28 0 -6
BITMAP
00000000
00000000
00FFF000
00FFF000
03C03C00
03C03C00
0F003C00
0F003C00
0000F000
0000F000
000F0000
000F0000
003C0000
003C0000
003C0000
003C0000
00000000
00000000
00F00000
00F00000
00F00000
00F00000
00000000
00000000
00000000
00000000
00000000
00000000
ENDCHAR
STARTCHAR char64
ENCODING 64
SWIDTH 1846 0
DWIDTH 28 0
BBX 28 28 0 -6
BITMAP
00000000
00000000
00000000
00000000
00FFFF00
00FFFF00
03C003C0
03C003C0
0F3FC3C0
0F3FC3C0
3CF0F3C0
3CF0F3C0
3CF0F3C0
3CF0F3C0
3CF0C3C0
3CF0C3C0
3CFFFC00
3CFFFC00
3C000000
3C000000
0FFFF000
0FFFF000
00000000
00000000
00000000
00000000
00000000
00000000
ENDCHAR
STARTCHAR char65
ENCODING 65
SWIDTH 1846 0
DWIDTH 28 0
BBX 28 28 0 -6
BITMAP
00000000
00000000
0000F000
0000F000
0003FC00
0003FC00
000F0F00
000F0F00
00FC0F00
00FC0F00
03C003C0
03C003C0
0FFFFFC0
0FFFFFC0
0F0003C0
0F0003C0
3C0003C0
3C0003C0
3C0003C0
3C0003C0
3C0003C0
3C0003C0
00000000
00000000
00000000
00000000
00000000
00000000
ENDCHAR
STARTCHAR char66
ENCODING 66
SWIDTH 1846 0
DWIDTH 28 0
BBX 28 28 0 -6
BITMAP
00000000
00000000
03FFFC00
03FFFC00
03C00F00
03C00F00
03C00F00
03C00F00
0F003C00
0F003C00
0FFFFC00
0FFFFC00
0F000F00
0F000F00
0F0003C0
0F0003C0
3C000F00
3C000F00
3C003C00
3C003C00
3FFFF000
3FFFF000
00000000
00000000
00000000
00000000
00000000
00000000
ENDCHAR
STARTCHAR char67
ENCODING 67
SWIDTH 1846 0
DWIDTH 28 0
BBX 28 28 0 -6
BITMAP
00000000
00000000
00FFFF00
00FFFF00
03C003C0
03C003C0
0F0000F0
0F0000F0
3C000000
3C000000
3C000000
3C000000
3C000000
3C000000
3C000000
3C000000
3C000F00
3C000F00
3C003C00
3C003C00
0FFFF000
0FFFF000
00000000
00000000
00000000
00000000
00000000
00000000
ENDCHAR
STARTCHAR char68
ENCODING 68
SWIDTH 1846 0
DWIDTH 28 0
BBX 28 28 0 -6
BITMAP
00000000
00000000
0FFFFC00
0FFFFC00
0F000F00
0F000F00
0F0003C0
0F0003C0
3C0003C0
3C0003C0
3C0003C0
3C0003C0
3C0003C0
3C0003C0
3C000F00
3C000F00
F0003C00
F0003C00
F000F000
F000F000
FFFFC000
FFFFC000
00000000
00000000
00000000
00000000
00000000
00000000
ENDCHAR
STARTCHAR char69
ENCODING 69
SWIDTH 1846 0
DWIDTH 28 0
BBX 28 28 0 -6
BITMAP
00000000
00000000
0FFFFFC0
0FFFFFC0
0F000000
0F000000
0F000000
0F000000
3C000000
3C000000
3FFFC000
3FFFC000
3C000000
3C000000
3C000000
3C000000
F0000000
F0000000
F0000000
F0000000
FFFFFC00
FFFFFC00
00000000
00000000
00000000
00000000
00000000
00000000
ENDCHAR
STARTCHAR char70
ENCODING 70
SWIDTH 1846 0
DWIDTH 28 0
BBX 28 28 0 -6
BITMAP
00000000
00000000
0FFFFFC0
0FFFFFC0
0F000000
0F000000
0F000000
0F000000
3C000000
3C000000
3FFFC000
3FFFC000
3C000000
3C000000
3C000000
3C000000
F0000000
F0000000
F0000000
F0000000
F0000000
F0000000
00000000
00000000
00000000
00000000
00000000
00000000
ENDCHAR
STARTCHAR char71
ENCODING 71
SWIDTH 1846 0
DWIDTH 28 0
BBX 28 28 0 -6
BITMAP
00000000
00000000
00FFFF00
00FFFF00
03C003C0
03C003C0
0F0000F0
0F0000F0
3C000000
3C000000
3C000000
3C000000
3C00FFC0
3C00FFC0
3C0003C0
3C0003C0
3C000F00
3C000F00
3C003F00
3C003F00
0FFFF300
0FFFF300
00000000
00000000
00000000
00000000
00000000
00000000
ENDCHAR
STARTCHAR char72
ENCODING 72
SWIDTH 1846 0
DWIDTH 28 0
BBX 28 28 0 -6
BITMAP
00000000
00000000
0F0000F0
0F0000F0
0F0000F0
0F0000F0
0F0000F0
0F0000F0
3C0003C0
3C0003C0
3FFFFFC0
3FFFFFC0
3C0003C0
3C0003C0
3C0003C0
3C0003C0
F0000F00
F0000F00
F0000F00
F0000F00
F0000F00
F0000F00
00000000
00000000
00000000
00000000
00000000
00000000
ENDCHAR
STARTCHAR char73
ENCODING 73
SWIDTH 1846 0
DWIDTH 28 0
BBX 28 28 0 -6
BITMAP
00000000
00000000
00FFFF00
00FFFF00
0003C000
0003C000
0003C000
0003C000
000F0000
000F0000
000F0000
000F0000
000F0000
000F0000
000F0000
000F0000
003C0000
003C0000
003C0000
003C0000
0FFFF000
0FFFF000
00000000
00000000
00000000
00000000
00000000
00000000
ENDCHAR
STARTCHAR char74
ENCODING 74
SWIDTH 1846 0
DWIDTH 28 0
BBX 28 28 0 -6
BITMAP
00000000
00000000
0003FFC0
0003FFC0
00003C00
00003C00
00003C00
00003C00
0000F000
0000F000
0000F000
0000F000
0000F000
0000F000
0F00F000
0F00F000
0F03C000
0F03C000
0F0F0000
0F0F0000
03FC0000
03FC0000
00000000
00000000
00000000
00000000
00000000
00000000
ENDCHAR
STARTCHAR char75
ENCODING 75
SWIDTH 1846 0
DWIDTH 28 0
BBX 28 28 0 -6
BITMAP
00000000
00000000
03C00F00
03C00F00
03C03C00
03C03C00
03C0F000
03C0F000
0F03C000
0F03C000
0FFF0000
0FFF0000
0F0F0000
0F0F0000
0F03C000
0F03C000
3C03C000
3C03C000
3C00F000
3C00F000
3C003C00
3C003C00
00000000
00000000
00000000
00000000
00000000
00000000
ENDCHAR
STARTCHAR char76
ENCODING 76
SWIDTH 1846 0
DWIDTH 28 0
BBX 28 28 0 -6
BITMAP
00000000
00000000
03C00000
03C00000
03C00000
03C00000
03C00000
03C00000
0F000000
0F000000
0F000000
0F000000
0F000000
0F000000
0F000000
0F000000
3C000000
3C000000
3C000000
3C000000
3FFFFF00
3FFFFF00
00000000
00000000
00000000
00000000
00000000
00000000
ENDCHAR
STARTCHAR char77
ENCODING 77
SWIDTH 1846 0
DWIDTH 28 0
BBX 28 28 0 -6
BITMAP
00000000
00000000
0F0000F0
0F0000F0
0FC003F0
0FC003F0
0FF00FF0
0FF00FF0
3CF0FFC0
3CF0FFC0
3C3FC3C0
3C3FC3C0
3C0F03C0
3C0F03C0
3C0003C0
3C0003C0
F0000F00
F0000F00
F0000F00
F0000F00
F0000F00
F0000F00
00000000
00000000
00000000
00000000
00000000
00000000
ENDCHAR
STARTCHAR char78
ENCODING 78
SWIDTH 1846 0
DWIDTH 28 0
BBX 28 28 0 -6
BITMAP
00000000
00000000
0F0003C0
0F0003C0
0FC003C0
0FC003C0
0FF003C0
0FF003C0
3CF00F00
3CF00F00
3C3C0F00
3C3C0F00
3C0F0F00
3C0F0F00
3C03CF00
3C03CF00
F003FC00
F003FC00
F000FC00
F000FC00
F0003C00
F0003C00
00000000
00000000
00000000
00000000
00000000
00000000
ENDCHAR
STARTCHAR char79
ENCODING 79
SWIDTH 1846 0
DWIDTH 28 0
BBX 28 28 0 -6
BITMAP
00000000
00000000
00FFFF00
00FFFF00
03C003C0
03C003C0
0F0003C0
0F0003C0
3C0003C0
3C0003C0
3C0003C0
3C0003C0
3C0003C0
3C0003C0
3C0003C0
3C0003C0
3C000F00
3C000F00
3C003C00
3C003C00
0FFFF000
0FFFF000
00000000
00000000
00000000
00000000
00000000
00000000
ENDCHAR
STARTCHAR char80
ENCODING 80
SWIDTH 1846 0
DWIDTH 28 0
BBX 28 28 0 -6
BITMAP
00000000
00000000
0FFFFC00
0FFFFC00
0F000F00
0F000F00
0F0003C0
0F0003C0
3C000F00
3C000F00
3C003C00
3C003C00
3FFFF000
3FFFF000
3C000000
3C000000
F0000000
F0000000
F0000000
F0000000
F0000000
F0000000
00000000
00000000
00000000
00000000
00000000
00000000
ENDCHAR
STARTCHAR char81
ENCODING 81
SWIDTH 1846 0
DWIDTH 28 0
BBX 28 28 0 -6
BITMAP
00000000
00000000
00FFFF00
00FFFF00
03C003C0
03C003C0
0F0003C0
0F0003C0
3C0003C0
3C0003C0
3C0003C0
3C0003C0
3C0003C0
3C0003C0
3C0003C0
3C0003C0
3C03CF00
3C03CF00
3C00FC00
3C00FC00
0FFFFC00
0FFFFC00
00000F00
00000F00
00000000
00000000
00000000
00000000
ENDCHAR
STARTCHAR char82
ENCODING 82
SWIDTH 1846 0
DWIDTH 28 0
BBX 28 28 0 -6
BITMAP
00000000
00000000
0FFFFC00
0FFFFC00
0F000F00
0F000F00
0F000F00
0F000F00
3C000F00
3C000F00
3C003C00
3C003C00
3FFFF000
3FFFF000
3C03C000
3C03C000
F003C000
F003C000
F000F000
F000F000
F0003C00
F0003C00
00000000
00000000
00000000
00000000
00000000
00000000
ENDCHAR
STARTCHAR char83
ENCODING 83
SWIDTH 1846 0
DWIDTH 28 0
BBX 28 28 0 -6
BITMAP
00000000
00000000
00FFFFC0
00FFFFC0
03C000F0
03C000F0
0F000000
0F000000
0F000000
0F000000
03FFFC00
03FFFC00
00000F00
00000F00
00000F00
00000F00
F0000F00
F0000F00
3C003C00
3C003C00
0FFFF000
0FFFF000
00000000
00000000
00000000
00000000
00000000
00000000
ENDCHAR
STARTCHAR char84
ENCODING 84
SWIDTH 1846 0
DWIDTH 28 0
BBX 28 28 0 -6
BITMAP
00000000
00000000
0FFFFF00
0FFFFF00
000F0000
000F0000
000F0000
000F0000
003C0000
003C0000
003C0000
003C0000
003C0000
003C0000
003C0000
003C0000
00F00000
00F00000
00F00000
00F00000
00F00000
00F00000
00000000
00000000
00000000
00000000
00000000
00000000
ENDCHAR
STARTCHAR char85
ENCODING 85
SWIDTH 1846 0
DWIDTH 28 0
BBX 28 28 0 -6
BITMAP
00000000
00000000
3C0003C0
3C0003C0
3C0003C0
3C0003C0
3C0003C0
3C0003C0
F00003C0
F00003C0
F0000F00
F0000F00
F0000F00
F0000F00
F0000F00
F0000F00
F0003C00
F0003C00
F000F000
F000F000
3FFFC000
3FFFC000
00000000
00000000
00000000
00000000
00000000
00000000
ENDCHAR
STARTCHAR char86
ENCODING 86
SWIDTH 1846 0
DWIDTH 28 0
BBX 28 28 0 -6
BITMAP
00000000
00000000
3C0003C0
3C0003C0
3C0003C0
3C0003C0
3C000F00
3C000F00
3C003C00
3C003C00
0F00F000
0F00F000
0F03C000
0F03C000
03CF0000
03CF0000
03FC0000
03FC0000
03FC0000
03FC0000
00F00000
00F00000
00000000
00000000
00000000
00000000
00000000
00000000
ENDCHAR
STARTCHAR char87
ENCODING 87
SWIDTH 1846 0
DWIDTH 28 0
BBX 28 28 0 -6
BITMAP
00000000
00000000
3C0003C0
3C0003C0
3C0003C0
3C0003C0
3C0003C0
3C0003C0
3C3C0F00
3C3C0F00
3C3C3C00
3C3C3C00
3CFF3C00
3CFF3C00
3FFFF000
3FFFF000
3F0FF000
3F0FF000
3F0FC000
3F0FC000
3C03C000
3C03C000
00000000
00000000
00000000
00000000
00000000
00000000
ENDCHAR
STARTCHAR char88
ENCODING 88
SWIDTH 1846 0
DWIDTH 28 0
BBX 28 28 0 -6
BITMAP
00000000
00000000
03C003C0
03C003C0
00F00F00
00F00F00
003C3C00
003C3C00
000FF000
000FF000
000FC000
000FC000
003F0000
003F0000
00FF0000
00FF0000
03C3C000
03C3C000
0F00F000
0F00F000
3C003C00
3C003C00
00000000
00000000
00000000
00000000
00000000
00000000
ENDCHAR
STARTCHAR char89
ENCODING 89
SWIDTH 1846 0
DWIDTH 28 0
BBX 28 28 0 -6
BITMAP
00000000
00000000
3C0003C0
3C0003C0
0F000F00
0F000F00
03C03C00
03C03C00
03C3F000
03C3F000
00FF0000
00FF0000
003C0000
003C0000
003C0000
003C0000
00F00000
00F00000
00F00000
00F00000
00F00000
00F00000
00000000
00000000
00000000
00000000
00000000
00000000
ENDCHAR
STARTCHAR char90
ENCODING 90
SWIDTH 1846 0
DWIDTH 28 0
BBX 28 28 0 -6
BITMAP
00000000
00000000
0FFFFFC0
0FFFFFC0
00000F00
00000F00
00003C00
00003C00
0003F000
0003F000
000F0000
000F0000
003C0000
003C0000
03F00000
03F00000
0F000000
0F000000
3C000000
3C000000
FFFFFC00
FFFFFC00
00000000
00000000
00000000
00000000
00000000
00000000
ENDCHAR
STARTCHAR char91
ENCODING 91
SWIDTH 1846 0
DWIDTH 28 0
BBX 28 28 0 -6
BITMAP
00000000
00000000
000FFC00
000FFC00
000F0000
000F0000
000F0000
000F0000
000F0000
000F0000
003C0000
003C0000
003C0000
003C0000
003C0000
003C0000
00F00000
00F00000
00F00000
00F00000
00F00000
00F00000
00FFC000
00FFC000
00000000
00000000
00000000
00000000
ENDCHAR
STARTCHAR char92
ENCODING 92
SWIDTH 1846 0
DWIDTH 28 0
BBX 28 28 0 -6
BITMAP
00000000
00000000
0F000000
0F000000
03C00000
03C00000
00F00000
00F00000
00F00000
00F00000
003C0000
003C0000
000F0000
000F0000
0003C000
0003C000
0003C000
0003C000
0000F000
0000F000
00003C00
00003C00
00000000
00000000
00000000
00000000
00000000
00000000
ENDCHAR
STARTCHAR char93
ENCODING 93
SWIDTH 1846 0
DWIDTH 28 0
BBX 28 28 0 -6
BITMAP
00000000
00000000
003FF000
003FF000
0000F000
0000F000
0000F000
0000F000
0000F000
0000F000
0003C000
0003C000
0003C000
0003C000
0003C000
0003C000
000F0000
000F0000
000F0000
000F0000
000F0000
000F0000
03FF0000
03FF0000
00000000
00000000
00000000
00000000
ENDCHAR
STARTCHAR char94
ENCODING 94
SWIDTH 1846 0
DWIDTH 28 0
BBX 28 28 0 -6
BITMAP
00000000
00000000
0003C000
0003C000
000FF000
000FF000
00FCF000
00FCF000
03C03C00
03C03C00
0F000F00
0F000F00
00000000
00000000
00000000
00000000
00000000
00000000
00000000
00000000
00000000
00000000
00000000
00000000
00000000
00000000
00000000
00000000
ENDCHAR
STARTCHAR char95
ENCODING 95
SWIDTH 1846 0
DWIDTH 28 0
BBX 28 28 0 -6
BITMAP
00000000
00000000
00000000
00000000
00000000
00000000
00000000
00000000
00000000
00000000
00000000
00000000
00000000
00000000
00000000
00000000
00000000
00000000
00000000
00000000
00000000
00000000
3FFFFFC0
3FFFFFC0
00000000
00000000
00000000
00000000
ENDCHAR
STARTCHAR char96
ENCODING 96
SWIDTH 1846 0
DWIDTH 28 0
BBX 28 28 0 -6
BITMAP
00000000
00000000
003C0000
003C0000
000F0000
000F0000
000F0000
000F0000
00000000
00000000
00000000
00000000
00000000
00000000
00000000
00000000
00000000
00000000
00000000
00000000
00000000
00000000
00000000
00000000
00000000
00000000
00000000
00000000
ENDCHAR
STARTCHAR char97
ENCODING 97
SWIDTH 1846 0
DWIDTH 28 0
BBX 28 28 0 -6
BITMAP
00000000
00000000
00000000
00000000
00000000
00000000
00000000
00000000
00FFFF00
00FFFF00
03C003C0
03C003C0
00000F00
00000F00
03FFFF00
03FFFF00
0F000F00
0F000F00
3C003C00
3C003C00
0FFFFC00
0FFFFC00
00000000
00000000
00000000
00000000
00000000
00000000
ENDCHAR
STARTCHAR char98
ENCODING 98
SWIDTH 1846 0
DWIDTH 28 0
BBX 28 28 0 -6
BITMAP
00000000
00000000
03C00000
03C00000
03C00000
03C00000
03C00000
03C00000
0F3FFC00
0F3FFC00
0FC00F00
0FC00F00
0F0003C0
0F0003C0
0F0003C0
0F0003C0
3C000F00
3C000F00
3F003C00
3F003C00
3CFFF000
3CFFF000
00000000
00000000
00000000
00000000
00000000
00000000
ENDCHAR
STARTCHAR char99
ENCODING 99
SWIDTH 1846 0
DWIDTH 28 0
BBX 28 28 0 -6
BITMAP
00000000
00000000
00000000
00000000
00000000
00000000
00000000
00000000
00FFFF00
00FFFF00
03C003C0
03C003C0
0F000000
0F000000
3C000000
3C000000
3C000000
3C000000
3C003C00
3C003C00
0FFFF000
0FFFF000
00000000
00000000
00000000
00000000
00000000
00000000
ENDCHAR
STARTCHAR char100
ENCODING 100
SWIDTH 1846 0
DWIDTH 28 0
BBX 28 28 0 -6
BITMAP
00000000
00000000
000003C0
000003C0
000003C0
000003C0
000003C0
000003C0
03FFCF00
03FFCF00
0F003F00
0F003F00
3C000F00
3C000F00
F0000F00
F0000F00
F0003C00
F0003C00
3C00FC00
3C00FC00
0FFF3C00
0FFF3C00
00000000
00000000
00000000
00000000
00000000
00000000
ENDCHAR
STARTCHAR char101
ENCODING 101
SWIDTH 1846 0
DWIDTH 28 0
BBX 28 28 0 -6
BITMAP
00000000
00000000
00000000
00000000
00000000
00000000
00000000
00000000
00FFFC00
00FFFC00
03C00F00
03C00F00
0F000F00
0F000F00
3FFFFF00
3FFFFF00
3C000000
3C000000
3C003C00
3C003C00
0FFFF000
0FFFF000
00000000
00000000
00000000
00000000
00000000
00000000
ENDCHAR
STARTCHAR char102
ENCODING 102
SWIDTH 1846 0
DWIDTH 28 0
BBX 28 28 0 -6
BITMAP
00000000
00000000
000FFC00
000FFC00
003C0F00
003C0F00
003C0000
003C0000
00F00000
00F00000
3FFFC000
3FFFC000
00F00000
00F00000
00F00000
00F00000
03C00000
03C00000
03C00000
03C00000
03C00000
03C00000
00000000
00000000
00000000
00000000
00000000
00000000
ENDCHAR
STARTCHAR char103
ENCODING 103
SWIDTH 1846 0
DWIDTH 28 0
BBX 28 28 0 -6
BITMAP
00000000
00000000
00000000
00000000
00000000
00000000
00000000
00000000
00FFF3C0
00FFF3C0
03C00F00
03C00F00
0F000F00
0F000F00
3C000F00
3C000F00
3C000F00
3C000F00
3C003C00
3C003C00
0FFFFC00
0FFFFC00
00003C00
00003C00
F0003C00
F0003C00
3FFFF000
3FFFF000
ENDCHAR
STARTCHAR char104
ENCODING 104
SWIDTH 1846 0
DWIDTH 28 0
BBX 28 28 0 -6
BITMAP
00000000
00000000
03C00000
03C00000
03C00000
03C00000
03C00000
03C00000
0F3FFC00
0F3FFC00
0FF00F00
0FF00F00
0F0003C0
0F0003C0
0F0003C0
0F0003C0
3C000F00
3C000F00
3C000F00
3C000F00
3C000F00
3C000F00
00000000
00000000
00000000
00000000
00000000
00000000
ENDCHAR
STARTCHAR char105
ENCODING 105
SWIDTH 1846 0
DWIDTH 28 0
BBX 28 28 0 -6
BITMAP
00000000
00000000
0003C000
0003C000
0003C000
0003C000
00000000
00000000
00FF0000
00FF0000
000F0000
000F0000
000F0000
000F0000
000F0000
000F0000
003C0000
003C0000
003C0000
003C0000
0FFFF000
0FFFF000
00000000
00000000
00000000
00000000
00000000
00000000
ENDCHAR
STARTCHAR char106
ENCODING 106
SWIDTH 1846 0
DWIDTH 28 0
BBX 28 28 0 -6
BITMAP
00000000
00000000
00000F00
00000F00
00000F00
00000F00
00000000
00000000
0003FC00
0003FC00
00003C00
00003C00
00003C00
00003C00
00003C00
00003C00
0000F000
0000F000
0000F000
0000F000
0000F000
0000F000
0F03C000
0F03C000
0F0F0000
0F0F0000
03FC0000
03FC0000
ENDCHAR
STARTCHAR char107
ENCODING 107
SWIDTH 1846 0
DWIDTH 28 0
BBX 28 28 0 -6
BITMAP
00000000
00000000
00F00000
00F00000
00F00000
00F00000
00F00000
00F00000
03C03C00
03C03C00
03C0F000
03C0F000
03C3C000
03C3C000
03CF0000
03CF0000
0FFF0000
0FFF0000
0FC3C000
0FC3C000
0F00F000
0F00F000
00000000
00000000
00000000
00000000
00000000
00000000
ENDCHAR
STARTCHAR char108
ENCODING 108
SWIDTH 1846 0
DWIDTH 28 0
BBX 28 28 0 -6
BITMAP
00000000
00000000
000FF000
000FF000
0000F000
0000F000
0000F000
0000F000
0003C000
0003C000
0003C000
0003C000
0003C000
0003C000
0003C000
0003C000
000F0000
000F0000
000F0000
000F0000
03FFFC00
03FFFC00
00000000
00000000
00000000
00000000
00000000
00000000
ENDCHAR
STARTCHAR char109
ENCODING 109
SWIDTH 1846 0
DWIDTH 28 0
BBX 28 28 0 -6
BITMAP
00000000
00000000
00000000
00000000
00000000
00000000
00000000
00000000
0CFC3F00
0CFC3F00
0FCFF3C0
0FCFF3C0
3C0F03C0
3C0F03C0
3C0F03C0
3C0F03C0
3C0F03C0
3C0F03C0
F03C0F00
F03C0F00
F03C0F00
F03C0F00
00000000
00000000
00000000
00000000
00000000
00000000
ENDCHAR
STARTCHAR char110
ENCODING 110
SWIDTH 1846 0
DWIDTH 28 0
BBX 28 28 0 -6
BITMAP
00000000
00000000
00000000
00000000
00000000
00000000
00000000
00000000
03CFFF00
03CFFF00
03FC03C0
03FC03C0
0FC003C0
0FC003C0
0F0003C0
0F0003C0
0F0003C0
0F0003C0
3C000F00
3C000F00
3C000F00
3C000F00
00000000
00000000
00000000
00000000
00000000
00000000
ENDCHAR
STARTCHAR char111
ENCODING 111
SWIDTH 1846 0
DWIDTH 28 0
BBX 28 28 0 -6
BITMAP
00000000
00000000
00000000
00000000
00000000
00000000
00000000
00000000
00FFFF00
00FFFF00
03C003C0
03C003C0
0F0003C0
0F0003C0
3C0003C0
3C0003C0
3C000F00
3C000F00
3C003C00
3C003C00
0FFFF000
0FFFF000
00000000
00000000
00000000
00000000
00000000
00000000
ENDCHAR
STARTCHAR char112
ENCODING 112
SWIDTH 1846 0
DWIDTH 28 0
BBX 28 28 0 -6
BITMAP
00000000
00000000
00000000
00000000
00000000
00000000
00000000
00000000
03CFFF00
03CFFF00
03F003C0
03F003C0
03C003C0
03C003C0
0F0003C0
0F0003C0
0F0003C0
0F0003C0
0FC00F00
0FC00F00
0F3FFC00
0F3FFC00
3C000000
3C000000
3C000000
3C000000
3C000000
3C000000
ENDCHAR
STARTCHAR char113
ENCODING 113
SWIDTH 1846 0
DWIDTH 28 0
BBX 28 28 0 -6
BITMAP
00000000
00000000
00000000
00000000
00000000
00000000
00000000
00000000
03FFCF00
03FFCF00
0F003F00
0F003F00
0F000F00
0F000F00
3C003C00
3C003C00
3C003C00
3C003C00
3C00FC00
3C00FC00
0FFF3C00
0FFF3C00
0000F000
0000F000
0000F000
0000F000
0000F000
0000F000
ENDCHAR
STARTCHAR char114
ENCODING 114
SWIDTH 1846 0
DWIDTH 28 0
BBX 28 28 0 -6
BITMAP
00000000
00000000
00000000
00000000
00000000
00000000
00000000
00000000
0F3FFC00
0F3FFC00
03F00F00
03F00F00
0F000F00
0F000F00
0F000000
0F000000
0F000000
0F000000
3C000000
3C000000
3C000000
3C000000
00000000
00000000
00000000
00000000
00000000
00000000
ENDCHAR
STARTCHAR char115
ENCODING 115
SWIDTH 1846 0
DWIDTH 28 0
BBX 28 28 0 -6
BITMAP
00000000
00000000
00000000
00000000
00000000
00000000
00000000
00000000
00FFFF00
00FFFF00
03C003C0
03C003C0
0F000000
0F000000
03FFFC00
03FFFC00
00000F00
00000F00
3C003C00
3C003C00
0FFFF000
0FFFF000
00000000
00000000
00000000
00000000
00000000
00000000
ENDCHAR
STARTCHAR char116
ENCODING 116
SWIDTH 1846 0
DWIDTH 28 0
BBX 28 28 0 -6
BITMAP
00000000
00000000
000F0000
000F0000
000F0000
000F0000
000F0000
000F0000
0FFFF000
0FFFF000
003C0000
003C0000
003C0000
003C0000
003C0000
003C0000
00F00000
00F00000
00F03C00
00F03C00
003FF000
003FF000
00000000
00000000
00000000
00000000
00000000
00000000
ENDCHAR
STARTCHAR char117
ENCODING 117
SWIDTH 1846 0
DWIDTH 28 0
BBX 28 28 0 -6
BITMAP
00000000
00000000
00000000
00000000
00000000
00000000
00000000
00000000
0F0003C0
0F0003C0
0F0003C0
0F0003C0
3C000F00
3C000F00
3C000F00
3C000F00
3C000F00
3C000F00
3C00FC00
3C00FC00
0FFF3C00
0FFF3C00
00000000
00000000
00000000
00000000
00000000
00000000
ENDCHAR
STARTCHAR char118
ENCODING 118
SWIDTH 1846 0
DWIDTH 28 0
BBX 28 28 0 -6
BITMAP
00000000
00000000
00000000
00000000
00000000
00000000
00000000
00000000
3C0003C0
3C0003C0
3C0003C0
3C0003C0
3C003F00
3C003F00
0F00F000
0F00F000
03CFC000
03CFC000
03FC0000
03FC0000
00F00000
00F00000
00000000
00000000
00000000
00000000
00000000
00000000
ENDCHAR
STARTCHAR char119
ENCODING 119
SWIDTH 1846 0
DWIDTH 28 0
BBX 28 28 0 -6
BITMAP
00000000
00000000
00000000
00000000
00000000
00000000
00000000
00000000
3C0003C0
3C0003C0
3C0003C0
3C0003C0
3C000F00
3C000F00
3C3C3C00
3C3C3C00
3FFF3C00
3FFF3C00
3F0FF000
3F0FF000
3C03C000
3C03C000
00000000
00000000
00000000
00000000
00000000
00000000
ENDCHAR
STARTCHAR char120
ENCODING 120
SWIDTH 1846 0
DWIDTH 28 0
BBX 28 28 0 -6
BITMAP
00000000
00000000
00000000
00000000
00000000
00000000
00000000
00000000
0F0003C0
0F0003C0
03C00F00
03C00F00
00F3F000
00F3F000
003F0000
003F0000
03F3C000
03F3C000
3C00F000
3C00F000
F0003C00
F0003C00
00000000
00000000
00000000
00000000
00000000
00000000
ENDCHAR
STARTCHAR char121
ENCODING 121
SWIDTH 1846 0
DWIDTH 28 0
BBX 28 28 0 -6
BITMAP
00000000
00000000
00000000
00000000
00000000
00000000
00000000
00000000
0F0003C0
0F0003C0
0F0003C0
0F0003C0
3C000F00
3C000F00
3C000F00
3C000F00
3C000F00
3C000F00
3C00FC00
3C00FC00
0FFF3C00
0FFF3C00
0000F000
0000F000
F003C000
F003C000
3FFF0000
3FFF0000
ENDCHAR
STARTCHAR char122
ENCODING 122
SWIDTH 1846 0
DWIDTH 28 0
BBX 28 28 0 -6
BITMAP
00000000
00000000
00000000
00000000
00000000
00000000
00000000
00000000
03FFFFC0
03FFFFC0
000003C0
000003C0
0000FC00
0000FC00
000F0000
000F0000
03F00000
03F00000
3C000000
3C000000
3FFFFC00
3FFFFC00
00000000
00000000
00000000
00000000
00000000
00000000
ENDCHAR
STARTCHAR char123
ENCODING 123
SWIDTH 1846 0
DWIDTH 28 0
BBX 28 28 0 -6
BITMAP
00000000
00000000
0003FC00
0003FC00
000F0000
000F0000
000F0000
000F0000
000F0000
000F0000
003C0000
003C0000
03F00000
03F00000
003C0000
003C0000
003C0000
003C0000
00F00000
00F00000
00F00000
00F00000
003FC000
003FC000
00000000
00000000
00000000
00000000
ENDCHAR
STARTCHAR char124
ENCODING 124
SWIDTH 1846 0
DWIDTH 28 0
BBX 28 28 0 -6
BITMAP
00000000
00000000
0003C000
0003C000
0003C000
0003C000
0003C000
0003C000
0003C000
0003C000
000F0000
000F0000
000F0000
000F0000
000F0000
000F0000
003C0000
003C0000
003C0000
003C0000
003C0000
003C0000
003C0000
003C0000
00000000
00000000
00000000
00000000
ENDCHAR
STARTCHAR char123
ENCODING 125
SWIDTH 1846 0
DWIDTH 28 0
BBX 28 28 0 -6
BITMAP
00000000
00000000
003FC000
003FC000
0000F000
0000F000
0000F000
0000F000
0003C000
0003C000
0003C000
0003C000
0000FC00
0000FC00
0003C000
0003C000
000F0000
000F0000
000F0000
000F0000
000F0000
000F0000
03FC0000
03FC0000
00000000
00000000
00000000
00000000
ENDCHAR
STARTCHAR char126
ENCODING 126
SWIDTH 1846 0
DWIDTH 28 0
BBX 28 28 0 -6
BITMAP
00000000
00000000
00000000
00000000
00000000
00000000
00000000
00000000
00000000
00000000
00FC0000
00FC0000
0FCF03C0
0FCF03C0
3C0F3F00
3C0F3F00
0003F000
0003F000
00000000
00000000
00000000
00000000
00000000
00000000
00000000
00000000
00000000
00000000
ENDCHAR
STARTCHAR char127
ENCODING 127
SWIDTH 1846 0
DWIDTH 28 0
BBX 28 28 0 -6
BITMAP
00000000
00000000
00000000
00000000
00000000
00000000
00000000
00000000
00000000
00000000
00000000
00000000
00000000
00000000
00000000
00000000
00000000
00000000
00000000
00000000
00000000
00000000
00000000
00000000
00000000
00000000
00000000
00000000
ENDCHAR
STARTCHAR char133
ENCODING 133
SWIDTH 1846 0
DWIDTH 28 0
BBX 28 28 0 -6
BITMAP
00000000
00000000
00000000
00000000
00000000
00000000
00000000
00000000
00000000
00000000
00000000
00000000
00000000
00000000
00000000
00000000
00000000
00000000
0F0F0F00
0F0F0F00
0F0F0F00
0F0F0F00
00000000
00000000
00000000
00000000
00000000
00000000
ENDCHAR
STARTCHAR char136
ENCODING 136
SWIDTH 1846 0
DWIDTH 28 0
BBX 28 28 0 -6
BITMAP
000F0000
000F0000
003FC000
003FC000
00F0F000
00F0F000
00000000
00000000
00000000
00000000
00000000
00000000
00000000
00000000
00000000
00000000
00000000
00000000
00000000
00000000
00000000
00000000
00000000
00000000
00000000
00000000
00000000
00000000
ENDCHAR
STARTCHAR char171
ENCODING 139
SWIDTH 1846 0
DWIDTH 28 0
BBX 28 28 0 -6
BITMAP
00000000
00000000
00000000
00000000
00000000
00000000
00000000
00000000
0003C000
0003C000
000F0000
000F0000
003C0000
003C0000
00F00000
00F00000
003C0000
003C0000
000F0000
000F0000
0003C000
0003C000
00000000
00000000
00000000
00000000
00000000
00000000
ENDCHAR
STARTCHAR char97
ENCODING 140
SWIDTH 1846 0
DWIDTH 28 0
BBX 28 28 0 -6
BITMAP
00000000
00000000
00000000
00000000
00000000
00000000
00000000
00000000
0FF0FF00
0FF0FF00
3C0F03C0
3C0F03C0
3C0F03C0
3C0F03C0
3C0FFF00
3C0FFF00
3C0F0000
3C0F0000
3C0F03C0
3C0F03C0
0FF0FF00
0FF0FF00
00000000
00000000
00000000
00000000
00000000
00000000
ENDCHAR
STARTCHAR char140
ENCODING 155
SWIDTH 1846 0
DWIDTH 28 0
BBX 28 28 0 -6
BITMAP
00000000
00000000
00000000
00000000
00000000
00000000
00000000
00000000
003C0000
003C0000
000F0000
000F0000
0003C000
0003C000
0000F000
0000F000
0003C000
0003C000
000F0000
000F0000
003C0000
003C0000
00000000
00000000
00000000
00000000
00000000
00000000
ENDCHAR
STARTCHAR char160
ENCODING 160
SWIDTH 1846 0
DWIDTH 28 0
BBX 28 28 0 -6
BITMAP
00000000
00000000
00000000
00000000
00000000
00000000
00000000
00000000
00000000
00000000
00000000
00000000
00000000
00000000
00000000
00000000
00000000
00000000
00000000
00000000
00000000
00000000
00000000
00000000
00000000
00000000
00000000
00000000
ENDCHAR
STARTCHAR char33
ENCODING 161
SWIDTH 1846 0
DWIDTH 28 0
BBX 28 28 0 -6
BITMAP
00000000
00000000
000F0000
000F0000
000F0000
000F0000
00000000
00000000
000F0000
000F0000
000F0000
000F0000
000F0000
000F0000
000F0000
000F0000
000F0000
000F0000
000F0000
000F0000
000F0000
000F0000
00000000
00000000
00000000
00000000
00000000
00000000
ENDCHAR
STARTCHAR char30
ENCODING 163
SWIDTH 1846 0
DWIDTH 28 0
BBX 28 28 0 -6
BITMAP
00000000
00000000
000FFC00
000FFC00
003C0F00
003C0F00
00F00000
00F00000
00F00000
00F00000
003C0000
003C0000
0FFFF000
0FFFF000
003C0000
003C0000
00F00000
00F00000
03FF0F00
03FF0F00
03C3FC00
03C3FC00
00000000
00000000
00000000
00000000
00000000
00000000
ENDCHAR
STARTCHAR char124
ENCODING 166
SWIDTH 1846 0
DWIDTH 28 0
BBX 28 28 0 -6
BITMAP
00000000
00000000
000F0000
000F0000
000F0000
000F0000
000F0000
000F0000
000F0000
000F0000
000F0000
000F0000
00000000
00000000
000F0000
000F0000
000F0000
000F0000
000F0000
000F0000
000F0000
000F0000
000F0000
000F0000
00000000
00000000
00000000
00000000
ENDCHAR
STARTCHAR cloud
ENCODING 167
SWIDTH 1846 0
DWIDTH 28 0
BBX 28 28 0 -6
BITMAP
00000000
00000000
003FFC00
003FFC00
00F00F00
00F00F00
003C0000
003C0000
03FFC000
03FFC000
0F00F000
0F00F000
03C03C00
03C03C00
00F00F00
00F00F00
003FFC00
003FFC00
0003C000
0003C000
0F00F000
0F00F000
03FFC000
03FFC000
00000000
00000000
00000000
00000000
ENDCHAR
STARTCHAR char168
ENCODING 168
SWIDTH 1846 0
DWIDTH 28 0
BBX 28 28 0 -6
BITMAP
00F0F000
00F0F000
00F0F000
00F0F000
00000000
00000000
00000000
00000000
00000000
00000000
00000000
00000000
00000000
00000000
00000000
00000000
00000000
00000000
00000000
00000000
00000000
00000000
00000000
00000000
00000000
00000000
00000000
00000000
ENDCHAR
STARTCHAR teleporter
ENCODING 169
SWIDTH 1846 0
DWIDTH 28 0
BBX 28 28 0 -6
BITMAP
00000000
00000000
00000000
00000000
00FFF000
00FFF000
03C03C00
03C03C00
0F000F00
0F000F00
0C0F0300
0C0F0300
0C300300
0C300300
0C300300
0C300300
0C0F0300
0C0F0300
0F000F00
0F000F00
03C03C00
03C03C00
00FFF000
00FFF000
00000000
00000000
00000000
00000000
ENDCHAR
STARTCHAR char171
ENCODING 171
SWIDTH 1846 0
DWIDTH 28 0
BBX 28 28 0 -6
BITMAP
00000000
00000000
00000000
00000000
00000000
00000000
00000000
00000000
003C3C00
003C3C00
00F0F000
00F0F000
03C3C000
03C3C000
0F0F0000
0F0F0000
03C3C000
03C3C000
00F0F000
00F0F000
003C3C00
003C3C00
00000000
00000000
00000000
00000000
00000000
00000000
ENDCHAR
STARTCHAR char169
ENCODING 174
SWIDTH 1846 0
DWIDTH 28 0
BBX 28 28 0 -6
BITMAP
00000000
00000000
00000000
00000000
00FFF000
00FFF000
03C03C00
03C03C00
0F000F00
0F000F00
0C3F0300
0C3F0300
0C30C300
0C30C300
0C3F0300
0C3F0300
0C30C300
0C30C300
0F000F00
0F000F00
03C03C00
03C03C00
00FFF000
00FFF000
00000000
00000000
00000000
00000000
ENDCHAR
STARTCHAR char7
ENCODING 176
SWIDTH 1846 0
DWIDTH 28 0
BBX 28 28 0 -6
BITMAP
00000000
00000000
000F0000
000F0000
0030C000
0030C000
0030C000
0030C000
000F0000
000F0000
00000000
00000000
00000000
00000000
00000000
00000000
00000000
00000000
00000000
00000000
00000000
00000000
00000000
00000000
00000000
00000000
00000000
00000000
ENDCHAR
STARTCHAR char8
ENCODING 177
SWIDTH 1846 0
DWIDTH 28 0
BBX 28 28 0 -6
BITMAP
00000000
00000000
00000000
00000000
000C0000
000C0000
000C0000
000C0000
000C0000
000C0000
03FFF000
03FFF000
000C0000
000C0000
000C0000
000C0000
000C0000
000C0000
00000000
00000000
03FFF000
03FFF000
00000000
00000000
00000000
00000000
00000000
00000000
ENDCHAR
STARTCHAR char178
ENCODING 178
SWIDTH 1846 0
DWIDTH 28 0
BBX 28 28 0 -6
BITMAP
003F0000
003F0000
00C0C000
00C0C000
00030000
00030000
000C0000
000C0000
00300000
00300000
00FFC000
00FFC000
00000000
00000000
00000000
00000000
00000000
00000000
00000000
00000000
00000000
00000000
00000000
00000000
00000000
00000000
00000000
00000000
ENDCHAR
STARTCHAR char179
ENCODING 179
SWIDTH 1846 0
DWIDTH 28 0
BBX 28 28 0 -6
BITMAP
003F0000
003F0000
0000C000
0000C000
000F0000
000F0000
0000C000
0000C000
0000C000
0000C000
003F0000
003F0000
00000000
00000000
00000000
00000000
00000000
00000000
00000000
00000000
00000000
00000000
00000000
00000000
00000000
00000000
00000000
00000000
ENDCHAR
STARTCHAR char180
ENCODING 180
SWIDTH 1846 0
DWIDTH 28 0
BBX 28 28 0 -6
BITMAP
0003C000
0003C000
000F0000
000F0000
003C0000
003C0000
00000000
00000000
00000000
00000000
00000000
00000000
00000000
00000000
00000000
00000000
00000000
00000000
00000000
00000000
00000000
00000000
00000000
00000000
00000000
00000000
00000000
00000000
ENDCHAR
STARTCHAR floor
ENCODING 183
SWIDTH 1846 0
DWIDTH 28 0
BBX 28 28 0 -6
BITMAP
00000000
00000000
00000000
00000000
00000000
00000000
00000000
00000000
00000000
00000000
00000000
00000000
000F0000
000F0000
000F0000
000F0000
00000000
00000000
00000000
00000000
00000000
00000000
00000000
00000000
00000000
00000000
00000000
00000000
ENDCHAR
STARTCHAR char185
ENCODING 185
SWIDTH 1846 0
DWIDTH 28 0
BBX 28 28 0 -6
BITMAP
003C0000
003C0000
00CC0000
00CC0000
000C0000
000C0000
000C0000
000C0000
000C0000
000C0000
00FFC000
00FFC000
00000000
00000000
00000000
00000000
00000000
00000000
00000000
00000000
00000000
00000000
00000000
00000000
00000000
00000000
00000000
00000000
ENDCHAR
STARTCHAR char7
ENCODING 186
SWIDTH 1846 0
DWIDTH 28 0
BBX 28 28 0 -6
BITMAP
003F0000
003F0000
00C0C000
00C0C000
00C0C000
00C0C000
00C0C000
00C0C000
00C0C000
00C0C000
003F0000
003F0000
00000000
00000000
00000000
00000000
00000000
00000000
00000000
00000000
00000000
00000000
00000000
00000000
00000000
00000000
00000000
00000000
ENDCHAR
STARTCHAR char171
ENCODING 187
SWIDTH 1846 0
DWIDTH 28 0
BBX 28 28 0 -6
BITMAP
00000000
00000000
00000000
00000000
00000000
00000000
00000000
00000000
03C3C000
03C3C000
00F0F000
00F0F000
003C3C00
003C3C00
000F0F00
000F0F00
003C3C00
003C3C00
00F0F000
00F0F000
03C3C000
03C3C000
00000000
00000000
00000000
00000000
00000000
00000000
ENDCHAR
STARTCHAR char47
ENCODING 188
SWIDTH 1846 0
DWIDTH 28 0
BBX 28 28 0 -6
BITMAP
00000000
00000000
3C000F00
3C000F00
0C003C00
0C003C00
0C00F000
0C00F000
0C03C000
0C03C000
0C0F0C00
0C0F0C00
3F3C3C00
3F3C3C00
00F0CC00
00F0CC00
03C3FF00
03C3FF00
0F000C00
0F000C00
3C000C00
3C000C00
00000000
00000000
00000000
00000000
00000000
00000000
ENDCHAR
STARTCHAR char189
ENCODING 189
SWIDTH 1846 0
DWIDTH 28 0
BBX 28 28 0 -6
BITMAP
00000000
00000000
3C000F00
3C000F00
0C003C00
0C003C00
0C00F000
0C00F000
0C03C000
0C03C000
0C0F3C00
0C0F3C00
3F3CC300
3F3CC300
00F00300
00F00300
03C00C00
03C00C00
0F003000
0F003000
3C00FF00
3C00FF00
00000000
00000000
00000000
00000000
00000000
00000000
ENDCHAR
STARTCHAR char190
ENCODING 190
SWIDTH 1846 0
DWIDTH 28 0
BBX 28 28 0 -6
BITMAP
00000000
00000000
0F000F00
0F000F00
30C03C00
30C03C00
0300F000
0300F000
00C3C000
00C3C000
30CF0C00
30CF0C00
0F3C3C00
0F3C3C00
00F0CC00
00F0CC00
03C3FF00
03C3FF00
0F000C00
0F000C00
3C000C00
3C000C00
00000000
00000000
00000000
00000000
00000000
00000000
ENDCHAR
STARTCHAR char63
ENCODING 191
SWIDTH 1846 0
DWIDTH 28 0
BBX 28 28 0 -6
BITMAP
00000000
00000000
000F0000
000F0000
000F0000
000F0000
00000000
00000000
000F0000
000F0000
000F0000
000F0000
003C0000
003C0000
03C00000
03C00000
0F000F00
0F000F00
03C03C00
03C03C00
00FFF000
00FFF000
00000000
00000000
00000000
00000000
00000000
00000000
ENDCHAR
STARTCHAR char65
ENCODING 192
SWIDTH 1846 0
DWIDTH 28 0
BBX 28 28 0 -6
BITMAP
003C0000
003C0000
000F0000
000F0000
00000000
00000000
003FC000
003FC000
00F0F000
00F0F000
03C03C00
03C03C00
0F000F00
0F000F00
3FFFFFC0
3FFFFFC0
3C0003C0
3C0003C0
3C0003C0
3C0003C0
3C0003C0
3C0003C0
00000000
00000000
00000000
00000000
00000000
00000000
ENDCHAR
STARTCHAR char193
ENCODING 193
SWIDTH 1846 0
DWIDTH 28 0
BBX 28 28 0 -6
BITMAP
0003C000
0003C000
000F0000
000F0000
00000000
00000000
003FC000
003FC000
00F0F000
00F0F000
03C03C00
03C03C00
0F000F00
0F000F00
3FFFFFC0
3FFFFFC0
3C0003C0
3C0003C0
3C0003C0
3C0003C0
3C0003C0
3C0003C0
00000000
00000000
00000000
00000000
00000000
00000000
ENDCHAR
STARTCHAR char194
ENCODING 194
SWIDTH 1846 0
DWIDTH 28 0
BBX 28 28 0 -6
BITMAP
000F0000
000F0000
0030C000
0030C000
00000000
00000000
003FC000
003FC000
00F0F000
00F0F000
03C03C00
03C03C00
0F000F00
0F000F00
3FFFFFC0
3FFFFFC0
3C0003C0
3C0003C0
3C0003C0
3C0003C0
3C0003C0
3C0003C0
00000000
00000000
00000000
00000000
00000000
00000000
ENDCHAR
STARTCHAR char195
ENCODING 195
SWIDTH 1846 0
DWIDTH 28 0
BBX 28 28 0 -6
BITMAP
003C3C00
003C3C00
03C3C000
03C3C000
00000000
00000000
003FC000
003FC000
00F0F000
00F0F000
03C03C00
03C03C00
0F000F00
0F000F00
3FFFFFC0
3FFFFFC0
3C0003C0
3C0003C0
3C0003C0
3C0003C0
3C0003C0
3C0003C0
00000000
00000000
00000000
00000000
00000000
00000000
ENDCHAR
STARTCHAR char196
ENCODING 196
SWIDTH 1846 0
DWIDTH 28 0
BBX 28 28 0 -6
BITMAP
00F0F000
00F0F000
00F0F000
00F0F000
00000000
00000000
003FC000
003FC000
00F0F000
00F0F000
03C03C00
03C03C00
0F000F00
0F000F00
3FFFFFC0
3FFFFFC0
3C0003C0
3C0003C0
3C0003C0
3C0003C0
3C0003C0
3C0003C0
00000000
00000000
00000000
00000000
00000000
00000000
ENDCHAR
STARTCHAR char197
ENCODING 197
SWIDTH 1846 0
DWIDTH 28 0
BBX 28 28 0 -6
BITMAP
000F0000
000F0000
0030C000
0030C000
0030C000
0030C000
003FC000
003FC000
00F0F000
00F0F000
03C03C00
03C03C00
0F000F00
0F000F00
3FFFFFC0
3FFFFFC0
3C0003C0
3C0003C0
3C0003C0
3C0003C0
3C0003C0
3C0003C0
00000000
00000000
00000000
00000000
00000000
00000000
ENDCHAR
STARTCHAR char198
ENCODING 198
SWIDTH 1846 0
DWIDTH 28 0
BBX 28 28 0 -6
BITMAP
00000000
00000000
000FFFC0
000FFFC0
003FC000
003FC000
00F3C000
00F3C000
03C3C000
03C3C000
0F03FF00
0F03FF00
3FFFC000
3FFFC000
3C03C000
3C03C000
3C03C000
3C03C000
3C03C000
3C03C000
3C03FFC0
3C03FFC0
00000000
00000000
00000000
00000000
00000000
00000000
ENDCHAR
STARTCHAR char67
ENCODING 199
SWIDTH 1846 0
DWIDTH 28 0
BBX 28 28 0 -6
BITMAP
00000000
00000000
03FFFC00
03FFFC00
0F000F00
0F000F00
3C0003C0
3C0003C0
3C000000
3C000000
3C000000
3C000000
3C000000
3C000000
3C000000
3C000000
3C0003C0
3C0003C0
0F000F00
0F000F00
03FFFC00
03FFFC00
0003C000
0003C000
0030F000
0030F000
003FC000
003FC000
ENDCHAR
STARTCHAR char69
ENCODING 200
SWIDTH 1846 0
DWIDTH 28 0
BBX 28 28 0 -6
BITMAP
003C0000
003C0000
000F0000
000F0000
00000000
00000000
3FFFFF00
3FFFFF00
3C000000
3C000000
3C000000
3C000000
3FFFC000
3FFFC000
3C000000
3C000000
3C000000
3C000000
3C000000
3C000000
3FFFFF00
3FFFFF00
00000000
00000000
00000000
00000000
00000000
00000000
ENDCHAR
STARTCHAR char201
ENCODING 201
SWIDTH 1846 0
DWIDTH 28 0
BBX 28 28 0 -6
BITMAP
000F0000
000F0000
003C0000
003C0000
00000000
00000000
3FFFFF00
3FFFFF00
3C000000
3C000000
3C000000
3C000000
3FFFC000
3FFFC000
3C000000
3C000000
3C000000
3C000000
3C000000
3C000000
3FFFFF00
3FFFFF00
00000000
00000000
00000000
00000000
00000000
00000000
ENDCHAR
STARTCHAR char202
ENCODING 202
SWIDTH 1846 0
DWIDTH 28 0
BBX 28 28 0 -6
BITMAP
003C0000
003C0000
00C30000
00C30000
00000000
00000000
3FFFFF00
3FFFFF00
3C000000
3C000000
3C000000
3C000000
3FFFC000
3FFFC000
3C000000
3C000000
3C000000
3C000000
3C000000
3C000000
3FFFFF00
3FFFFF00
00000000
00000000
00000000
00000000
00000000
00000000
ENDCHAR
STARTCHAR char203
ENCODING 203
SWIDTH 1846 0
DWIDTH 28 0
BBX 28 28 0 -6
BITMAP
00F3C000
00F3C000
00F3C000
00F3C000
00000000
00000000
3FFFFF00
3FFFFF00
3C000000
3C000000
3C000000
3C000000
3FFFC000
3FFFC000
3C000000
3C000000
3C000000
3C000000
3C000000
3C000000
3FFFFF00
3FFFFF00
00000000
00000000
00000000
00000000
00000000
00000000
ENDCHAR
STARTCHAR char73
ENCODING 204
SWIDTH 1846 0
DWIDTH 28 0
BBX 28 28 0 -6
BITMAP
003C0000
003C0000
000F0000
000F0000
00000000
00000000
03FFFC00
03FFFC00
000F0000
000F0000
000F0000
000F0000
000F0000
000F0000
000F0000
000F0000
000F0000
000F0000
000F0000
000F0000
03FFFC00
03FFFC00
00000000
00000000
00000000
00000000
00000000
00000000
ENDCHAR
STARTCHAR char205
ENCODING 205
SWIDTH 1846 0
DWIDTH 28 0
BBX 28 28 0 -6
BITMAP
0003C000
0003C000
000F0000
000F0000
00000000
00000000
03FFFC00
03FFFC00
000F0000
000F0000
000F0000
000F0000
000F0000
000F0000
000F0000
000F0000
000F0000
000F0000
000F0000
000F0000
03FFFC00
03FFFC00
00000000
00000000
00000000
00000000
00000000
00000000
ENDCHAR
STARTCHAR char206
ENCODING 206
SWIDTH 1846 0
DWIDTH 28 0
BBX 28 28 0 -6
BITMAP
000F0000
000F0000
0030C000
0030C000
00000000
00000000
03FFFC00
03FFFC00
000F0000
000F0000
000F0000
000F0000
000F0000
000F0000
000F0000
000F0000
000F0000
000F0000
000F0000
000F0000
03FFFC00
03FFFC00
00000000
00000000
00000000
00000000
00000000
00000000
ENDCHAR
STARTCHAR char207
ENCODING 207
SWIDTH 1846 0
DWIDTH 28 0
BBX 28 28 0 -6
BITMAP
00F0F000
00F0F000
00F0F000
00F0F000
00000000
00000000
03FFFC00
03FFFC00
000F0000
000F0000
000F0000
000F0000
000F0000
000F0000
000F0000
000F0000
000F0000
000F0000
000F0000
000F0000
03FFFC00
03FFFC00
00000000
00000000
00000000
00000000
00000000
00000000
ENDCHAR
STARTCHAR char68
ENCODING 208
SWIDTH 1846 0
DWIDTH 28 0
BBX 28 28 0 -6
BITMAP
00000000
00000000
0FFFF000
0FFFF000
0F003C00
0F003C00
0F000F00
0F000F00
0F0003C0
0F0003C0
3FFC03C0
3FFC03C0
0F0003C0
0F0003C0
0F0003C0
0F0003C0
0F000F00
0F000F00
0F003C00
0F003C00
0FFFF000
0FFFF000
00000000
00000000
00000000
00000000
00000000
00000000
ENDCHAR
STARTCHAR char78
ENCODING 209
SWIDTH 1846 0
DWIDTH 28 0
BBX 28 28 0 -6
BITMAP
003C3C00
003C3C00
03C3C000
03C3C000
00000000
00000000
3FC003C0
3FC003C0
3CF003C0
3CF003C0
3C3C03C0
3C3C03C0
3C0F03C0
3C0F03C0
3C03C3C0
3C03C3C0
3C00F3C0
3C00F3C0
3C003FC0
3C003FC0
3C000FC0
3C000FC0
00000000
00000000
00000000
00000000
00000000
00000000
ENDCHAR
STARTCHAR char79
ENCODING 210
SWIDTH 1846 0
DWIDTH 28 0
BBX 28 28 0 -6
BITMAP
003C0000
003C0000
000F0000
000F0000
00000000
00000000
03FFFC00
03FFFC00
0F000F00
0F000F00
3C0003C0
3C0003C0
3C0003C0
3C0003C0
3C0003C0
3C0003C0
3C0003C0
3C0003C0
0F000F00
0F000F00
03FFFC00
03FFFC00
00000000
00000000
00000000
00000000
00000000
00000000
ENDCHAR
STARTCHAR char79
ENCODING 211
SWIDTH 1846 0
DWIDTH 28 0
BBX 28 28 0 -6
BITMAP
0003C000
0003C000
000F0000
000F0000
00000000
00000000
03FFFC00
03FFFC00
0F000F00
0F000F00
3C0003C0
3C0003C0
3C0003C0
3C0003C0
3C0003C0
3C0003C0
3C0003C0
3C0003C0
0F000F00
0F000F00
03FFFC00
03FFFC00
00000000
00000000
00000000
00000000
00000000
00000000
ENDCHAR
STARTCHAR char79
ENCODING 212
SWIDTH 1846 0
DWIDTH 28 0
BBX 28 28 0 -6
BITMAP
000F0000
000F0000
0030C000
0030C000
00000000
00000000
03FFFC00
03FFFC00
0F000F00
0F000F00
3C0003C0
3C0003C0
3C0003C0
3C0003C0
3C0003C0
3C0003C0
3C0003C0
3C0003C0
0F000F00
0F000F00
03FFFC00
03FFFC00
00000000
00000000
00000000
00000000
00000000
00000000
ENDCHAR
STARTCHAR char79
ENCODING 213
SWIDTH 1846 0
DWIDTH 28 0
BBX 28 28 0 -6
BITMAP
003C3C00
003C3C00
03C3C000
03C3C000
00000000
00000000
03FFFC00
03FFFC00
0F000F00
0F000F00
3C0003C0
3C0003C0
3C0003C0
3C0003C0
3C0003C0
3C0003C0
3C0003C0
3C0003C0
0F000F00
0F000F00
03FFFC00
03FFFC00
00000000
00000000
00000000
00000000
00000000
00000000
ENDCHAR
STARTCHAR char79
ENCODING 214
SWIDTH 1846 0
DWIDTH 28 0
BBX 28 28 0 -6
BITMAP
00F0F000
00F0F000
00F0F000
00F0F000
00000000
00000000
03FFFC00
03FFFC00
0F000F00
0F000F00
3C0003C0
3C0003C0
3C0003C0
3C0003C0
3C0003C0
3C0003C0
3C0003C0
3C0003C0
0F000F00
0F000F00
03FFFC00
03FFFC00
00000000
00000000
00000000
00000000
00000000
00000000
ENDCHAR
STARTCHAR char215
ENCODING 215
SWIDTH 1846 0
DWIDTH 28 0
BBX 28 28 0 -6
BITMAP
00000000
00000000
00000000
00000000
00000000
00000000
00000000
00000000
03C03C00
03C03C00
00F0F000
00F0F000
003FC000
003FC000
000F0000
000F0000
003FC000
003FC000
00F0F000
00F0F000
03C03C00
03C03C00
00000000
00000000
00000000
00000000
00000000
00000000
ENDCHAR
STARTCHAR char79
ENCODING 216
SWIDTH 1846 0
DWIDTH 28 0
BBX 28 28 0 -6
BITMAP
000003C0
000003C0
03FFFF00
03FFFF00
0F003C00
0F003C00
3C00FF00
3C00FF00
3C03CF00
3C03CF00
3C0F0F00
3C0F0F00
3C3C0F00
3C3C0F00
3CF00F00
3CF00F00
3FC00F00
3FC00F00
0F003C00
0F003C00
3FFFF000
3FFFF000
F0000000
F0000000
00000000
00000000
00000000
00000000
ENDCHAR
STARTCHAR char85
ENCODING 217
SWIDTH 1846 0
DWIDTH 28 0
BBX 28 28 0 -6
BITMAP
003C0000
003C0000
000F0000
000F0000
3C0003C0
3C0003C0
3C0003C0
3C0003C0
3C0003C0
3C0003C0
3C0003C0
3C0003C0
3C0003C0
3C0003C0
3C0003C0
3C0003C0
3C0003C0
3C0003C0
0F000F00
0F000F00
03FFFC00
03FFFC00
00000000
00000000
00000000
00000000
00000000
00000000
ENDCHAR
STARTCHAR char85
ENCODING 218
SWIDTH 1846 0
DWIDTH 28 0
BBX 28 28 0 -6
BITMAP
0003C000
0003C000
000F0000
000F0000
3C0003C0
3C0003C0
3C0003C0
3C0003C0
3C0003C0
3C0003C0
3C0003C0
3C0003C0
3C0003C0
3C0003C0
3C0003C0
3C0003C0
3C0003C0
3C0003C0
0F000F00
0F000F00
03FFFC00
03FFFC00
00000000
00000000
00000000
00000000
00000000
00000000
ENDCHAR
STARTCHAR char85
ENCODING 219
SWIDTH 1846 0
DWIDTH 28 0
BBX 28 28 0 -6
BITMAP
000F0000
000F0000
0030C000
0030C000
3C0003C0
3C0003C0
3C0003C0
3C0003C0
3C0003C0
3C0003C0
3C0003C0
3C0003C0
3C0003C0
3C0003C0
3C0003C0
3C0003C0
3C0003C0
3C0003C0
0F000F00
0F000F00
03FFFC00
03FFFC00
00000000
00000000
00000000
00000000
00000000
00000000
ENDCHAR
STARTCHAR char85
ENCODING 220
SWIDTH 1846 0
DWIDTH 28 0
BBX 28 28 0 -6
BITMAP
00F0F000
00F0F000
00F0F000
00F0F000
3C0003C0
3C0003C0
3C0003C0
3C0003C0
3C0003C0
3C0003C0
3C0003C0
3C0003C0
3C0003C0
3C0003C0
3C0003C0
3C0003C0
3C0003C0
3C0003C0
0F000F00
0F000F00
03FFFC00
03FFFC00
00000000
00000000
00000000
00000000
00000000
00000000
ENDCHAR
STARTCHAR char89
ENCODING 221
SWIDTH 1846 0
DWIDTH 28 0
BBX 28 28 0 -6
BITMAP
0003C000
0003C000
000F0000
000F0000
3C0003C0
3C0003C0
0F000F00
0F000F00
03C03C00
03C03C00
00F0F000
00F0F000
003FC000
003FC000
000F0000
000F0000
000F0000
000F0000
000F0000
000F0000
000F0000
000F0000
00000000
00000000
00000000
00000000
00000000
00000000
ENDCHAR
STARTCHAR char222
ENCODING 222
SWIDTH 1846 0
DWIDTH 28 0
BBX 28 28 0 -6
BITMAP
00000000
00000000
3C000000
3C000000
3C000000
3C000000
3FFFF000
3FFFF000
3C003C00
3C003C00
3C000F00
3C000F00
3C000F00
3C000F00
3C003C00
3C003C00
3FFFF000
3FFFF000
3C000000
3C000000
3C000000
3C000000
00000000
00000000
00000000
00000000
00000000
00000000
ENDCHAR
STARTCHAR char66
ENCODING 223
SWIDTH 1846 0
DWIDTH 28 0
BBX 28 28 0 -6
BITMAP
00000000
00000000
00FFF000
00FFF000
03C03C00
03C03C00
0F000F00
0F000F00
0F003C00
0F003C00
0F3FFC00
0F3FFC00
0F000F00
0F000F00
0F0003C0
0F0003C0
0F0003C0
0F0003C0
0F000F00
0F000F00
0F0FFC00
0F0FFC00
3C000000
3C000000
00000000
00000000
00000000
00000000
ENDCHAR
STARTCHAR char97
ENCODING 224
SWIDTH 1846 0
DWIDTH 28 0
BBX 28 28 0 -6
BITMAP
00000000
00000000
000F0000
000F0000
0003C000
0003C000
00000000
00000000
00FFFF00
00FFFF00
03C003C0
03C003C0
000003C0
000003C0
03FFFFC0
03FFFFC0
0F0003C0
0F0003C0
0F0003C0
0F0003C0
03FFFCC0
03FFFCC0
00000000
00000000
00000000
00000000
00000000
00000000
ENDCHAR
STARTCHAR char97
ENCODING 225
SWIDTH 1846 0
DWIDTH 28 0
BBX 28 28 0 -6
BITMAP
00000000
00000000
0000F000
0000F000
0003C000
0003C000
00000000
00000000
00FFFF00
00FFFF00
03C003C0
03C003C0
000003C0
000003C0
03FFFFC0
03FFFFC0
0F0003C0
0F0003C0
0F0003C0
0F0003C0
03FFFCC0
03FFFCC0
00000000
00000000
00000000
00000000
00000000
00000000
ENDCHAR
STARTCHAR char97
ENCODING 226
SWIDTH 1846 0
DWIDTH 28 0
BBX 28 28 0 -6
BITMAP
00000000
00000000
0003C000
0003C000
000C3000
000C3000
00000000
00000000
00FFFF00
00FFFF00
03C003C0
03C003C0
000003C0
000003C0
03FFFFC0
03FFFFC0
0F0003C0
0F0003C0
0F0003C0
0F0003C0
03FFFCC0
03FFFCC0
00000000
00000000
00000000
00000000
00000000
00000000
ENDCHAR
STARTCHAR char97
ENCODING 227
SWIDTH 1846 0
DWIDTH 28 0
BBX 28 28 0 -6
BITMAP
00000000
00000000
000F0F00
000F0F00
00F0F000
00F0F000
00000000
00000000
00FFFF00
00FFFF00
03C003C0
03C003C0
000003C0
000003C0
03FFFFC0
03FFFFC0
0F0003C0
0F0003C0
0F0003C0
0F0003C0
03FFFCC0
03FFFCC0
00000000
00000000
00000000
00000000
00000000
00000000
ENDCHAR
STARTCHAR char97
ENCODING 228
SWIDTH 1846 0
DWIDTH 28 0
BBX 28 28 0 -6
BITMAP
00000000
00000000
003C3C00
003C3C00
003C3C00
003C3C00
00000000
00000000
00FFFF00
00FFFF00
03C003C0
03C003C0
000003C0
000003C0
03FFFFC0
03FFFFC0
0F0003C0
0F0003C0
0F0003C0
0F0003C0
03FFFCC0
03FFFCC0
00000000
00000000
00000000
00000000
00000000
00000000
ENDCHAR
STARTCHAR char97
ENCODING 229
SWIDTH 1846 0
DWIDTH 28 0
BBX 28 28 0 -6
BITMAP
0003C000
0003C000
000C3000
000C3000
0003C000
0003C000
00000000
00000000
00FFFF00
00FFFF00
03C003C0
03C003C0
000003C0
000003C0
03FFFFC0
03FFFFC0
0F0003C0
0F0003C0
0F0003C0
0F0003C0
03FFFCC0
03FFFCC0
00000000
00000000
00000000
00000000
00000000
00000000
ENDCHAR
STARTCHAR char97
ENCODING 230
SWIDTH 1846 0
DWIDTH 28 0
BBX 28 28 0 -6
BITMAP
00000000
00000000
00000000
00000000
00000000
00000000
00000000
00000000
03FFFF00
03FFFF00
0F0F03C0
0F0F03C0
000F03C0
000F03C0
0FFFFF00
0FFFFF00
3C0F0000
3C0F0000
3C0F03C0
3C0F03C0
0FFFFF00
0FFFFF00
00000000
00000000
00000000
00000000
00000000
00000000
ENDCHAR
STARTCHAR char99
ENCODING 231
SWIDTH 1846 0
DWIDTH 28 0
BBX 28 28 0 -6
BITMAP
00000000
00000000
00000000
00000000
00000000
00000000
00000000
00000000
03FFFC00
03FFFC00
0F000F00
0F000F00
3C000000
3C000000
3C000000
3C000000
3C000000
3C000000
0F000F00
0F000F00
03FFFC00
03FFFC00
0003C000
0003C000
0030F000
0030F000
003FC000
003FC000
ENDCHAR
STARTCHAR char101
ENCODING 232
SWIDTH 1846 0
DWIDTH 28 0
BBX 28 28 0 -6
BITMAP
00000000
00000000
000F0000
000F0000
003C0000
003C0000
00000000
00000000
03FFF000
03FFF000
0F003C00
0F003C00
3C000F00
3C000F00
3FFFFF00
3FFFFF00
3C000000
3C000000
0F000F00
0F000F00
03FFFC00
03FFFC00
00000000
00000000
00000000
00000000
00000000
00000000
ENDCHAR
STARTCHAR char101
ENCODING 233
SWIDTH 1846 0
DWIDTH 28 0
BBX 28 28 0 -6
BITMAP
00000000
00000000
003C0000
003C0000
000F0000
000F0000
00000000
00000000
03FFF000
03FFF000
0F003C00
0F003C00
3C000F00
3C000F00
3FFFFF00
3FFFFF00
3C000000
3C000000
0F000F00
0F000F00
03FFFC00
03FFFC00
00000000
00000000
00000000
00000000
00000000
00000000
ENDCHAR
STARTCHAR char101
ENCODING 234
SWIDTH 1846 0
DWIDTH 28 0
BBX 28 28 0 -6
BITMAP
00000000
00000000
000C0000
000C0000
00330000
00330000
00000000
00000000
03FFF000
03FFF000
0F003C00
0F003C00
3C000F00
3C000F00
3FFFFF00
3FFFFF00
3C000000
3C000000
0F000F00
0F000F00
03FFFC00
03FFFC00
00000000
00000000
00000000
00000000
00000000
00000000
ENDCHAR
STARTCHAR char101
ENCODING 235
SWIDTH 1846 0
DWIDTH 28 0
BBX 28 28 0 -6
BITMAP
00000000
00000000
00F3C000
00F3C000
00F3C000
00F3C000
00000000
00000000
03FFF000
03FFF000
0F003C00
0F003C00
3C000F00
3C000F00
3FFFFF00
3FFFFF00
3C000000
3C000000
0F000F00
0F000F00
03FFFC00
03FFFC00
00000000
00000000
00000000
00000000
00000000
00000000
ENDCHAR
STARTCHAR char105
ENCODING 236
SWIDTH 1846 0
DWIDTH 28 0
BBX 28 28 0 -6
BITMAP
00F00000
00F00000
003C0000
003C0000
000F0000
000F0000
00000000
00000000
00FF0000
00FF0000
000F0000
000F0000
000F0000
000F0000
000F0000
000F0000
000F0000
000F0000
000F0000
000F0000
03FFFC00
03FFFC00
00000000
00000000
00000000
00000000
00000000
00000000
ENDCHAR
STARTCHAR char105
ENCODING 237
SWIDTH 1846 0
DWIDTH 28 0
BBX 28 28 0 -6
BITMAP
0000F000
0000F000
0003C000
0003C000
000F0000
000F0000
00000000
00000000
00FF0000
00FF0000
000F0000
000F0000
000F0000
000F0000
000F0000
000F0000
000F0000
000F0000
000F0000
000F0000
03FFFC00
03FFFC00
00000000
00000000
00000000
00000000
00000000
00000000
ENDCHAR
STARTCHAR char105
ENCODING 238
SWIDTH 1846 0
DWIDTH 28 0
BBX 28 28 0 -6
BITMAP
00000000
00000000
000F0000
000F0000
0030C000
0030C000
00000000
00000000
00FF0000
00FF0000
000F0000
000F0000
000F0000
000F0000
000F0000
000F0000
000F0000
000F0000
000F0000
000F0000
03FFFC00
03FFFC00
00000000
00000000
00000000
00000000
00000000
00000000
ENDCHAR
STARTCHAR char105
ENCODING 239
SWIDTH 1846 0
DWIDTH 28 0
BBX 28 28 0 -6
BITMAP
00000000
00000000
00F0F000
00F0F000
00F0F000
00F0F000
00000000
00000000
00FF0000
00FF0000
000F0000
000F0000
000F0000
000F0000
000F0000
000F0000
000F0000
000F0000
000F0000
000F0000
03FFFC00
03FFFC00
00000000
00000000
00000000
00000000
00000000
00000000
ENDCHAR
STARTCHAR char100
ENCODING 240
SWIDTH 1846 0
DWIDTH 28 0
BBX 28 28 0 -6
BITMAP
00000000
00000000
00FCF000
00FCF000
000F0000
000F0000
00F3C000
00F3C000
0000F000
0000F000
03FFFC00
03FFFC00
0F000F00
0F000F00
3C0003C0
3C0003C0
3C0003C0
3C0003C0
0F000F00
0F000F00
03FFFC00
03FFFC00
00000000
00000000
00000000
00000000
00000000
00000000
ENDCHAR
STARTCHAR char110
ENCODING 241
SWIDTH 1846 0
DWIDTH 28 0
BBX 28 28 0 -6
BITMAP
00000000
00000000
00F0F000
00F0F000
0F0F0000
0F0F0000
00000000
00000000
3CFFF000
3CFFF000
3FC03C00
3FC03C00
3F000F00
3F000F00
3C000F00
3C000F00
3C000F00
3C000F00
3C000F00
3C000F00
3C000F00
3C000F00
00000000
00000000
00000000
00000000
00000000
00000000
ENDCHAR
STARTCHAR char111
ENCODING 242
SWIDTH 1846 0
DWIDTH 28 0
BBX 28 28 0 -6
BITMAP
00000000
00000000
003C0000
003C0000
000F0000
000F0000
00000000
00000000
03FFFC00
03FFFC00
0F000F00
0F000F00
3C0003C0
3C0003C0
3C0003C0
3C0003C0
3C0003C0
3C0003C0
0F000F00
0F000F00
03FFFC00
03FFFC00
00000000
00000000
00000000
00000000
00000000
00000000
ENDCHAR
STARTCHAR char111
ENCODING 243
SWIDTH 1846 0
DWIDTH 28 0
BBX 28 28 0 -6
BITMAP
00000000
00000000
0003C000
0003C000
000F0000
000F0000
00000000
00000000
03FFFC00
03FFFC00
0F000F00
0F000F00
3C0003C0
3C0003C0
3C0003C0
3C0003C0
3C0003C0
3C0003C0
0F000F00
0F000F00
03FFFC00
03FFFC00
00000000
00000000
00000000
00000000
00000000
00000000
ENDCHAR
STARTCHAR char111
ENCODING 244
SWIDTH 1846 0
DWIDTH 28 0
BBX 28 28 0 -6
BITMAP
00000000
00000000
000F0000
000F0000
0030C000
0030C000
00000000
00000000
03FFFC00
03FFFC00
0F000F00
0F000F00
3C0003C0
3C0003C0
3C0003C0
3C0003C0
3C0003C0
3C0003C0
0F000F00
0F000F00
03FFFC00
03FFFC00
00000000
00000000
00000000
00000000
00000000
00000000
ENDCHAR
STARTCHAR char111
ENCODING 245
SWIDTH 1846 0
DWIDTH 28 0
BBX 28 28 0 -6
BITMAP
00000000
00000000
003C3C00
003C3C00
03C3C000
03C3C000
00000000
00000000
03FFFC00
03FFFC00
0F000F00
0F000F00
3C0003C0
3C0003C0
3C0003C0
3C0003C0
3C0003C0
3C0003C0
0F000F00
0F000F00
03FFFC00
03FFFC00
00000000
00000000
00000000
00000000
00000000
00000000
ENDCHAR
STARTCHAR char111
ENCODING 246
SWIDTH 1846 0
DWIDTH 28 0
BBX 28 28 0 -6
BITMAP
00000000
00000000
00F0F000
00F0F000
00F0F000
00F0F000
00000000
00000000
03FFFC00
03FFFC00
0F000F00
0F000F00
3C0003C0
3C0003C0
3C0003C0
3C0003C0
3C0003C0
3C0003C0
0F000F00
0F000F00
03FFFC00
03FFFC00
00000000
00000000
00000000
00000000
00000000
00000000
ENDCHAR
STARTCHAR item_skeleton, fired_burst
ENCODING 247
SWIDTH 1846 0
DWIDTH 28 0
BBX 28 28 0 -6
BITMAP
00000000
00000000
00000000
00000000
00000000
00000000
000F0000
000F0000
000F0000
000F0000
00000000
00000000
03FFFC00
03FFFC00
00000000
00000000
000F0000
000F0000
000F0000
000F0000
00000000
00000000
00000000
00000000
00000000
00000000
00000000
00000000
ENDCHAR
STARTCHAR char111
ENCODING 248
SWIDTH 1846 0
DWIDTH 28 0
BBX 28 28 0 -6
BITMAP
00000000
00000000
00000000
00000000
00000000
00000000
00000000
00000000
03FFFCC0
03FFFCC0
0F000F00
0F000F00
3C00F3C0
3C00F3C0
3C0F03C0
3C0F03C0
3CF003C0
3CF003C0
0F000F00
0F000F00
33FFFC00
33FFFC00
00000000
00000000
00000000
00000000
00000000
00000000
ENDCHAR
STARTCHAR char117
ENCODING 249
SWIDTH 1846 0
DWIDTH 28 0
BBX 28 28 0 -6
BITMAP
00000000
00000000
003C0000
003C0000
000F0000
000F0000
0003C000
0003C000
0F0003C0
0F0003C0
0F0003C0
0F0003C0
0F0003C0
0F0003C0
0F0003C0
0F0003C0
0F0003C0
0F0003C0
03C00FC0
03C00FC0
00FFF3C0
00FFF3C0
00000000
00000000
00000000
00000000
00000000
00000000
ENDCHAR
STARTCHAR char117
ENCODING 250
SWIDTH 1846 0
DWIDTH 28 0
BBX 28 28 0 -6
BITMAP
00000000
00000000
0000F000
0000F000
0003C000
0003C000
000F0000
000F0000
0F0003C0
0F0003C0
0F0003C0
0F0003C0
0F0003C0
0F0003C0
0F0003C0
0F0003C0
0F0003C0
0F0003C0
03C00FC0
03C00FC0
00FFF3C0
00FFF3C0
00000000
00000000
00000000
00000000
00000000
00000000
ENDCHAR
STARTCHAR char117
ENCODING 251
SWIDTH 1846 0
DWIDTH 28 0
BBX 28 28 0 -6
BITMAP
00000000
00000000
00030000
00030000
000FC000
000FC000
003CF000
003CF000
0F0003C0
0F0003C0
0F0003C0
0F0003C0
0F0003C0
0F0003C0
0F0003C0
0F0003C0
0F0003C0
0F0003C0
03C00FC0
03C00FC0
00FFF3C0
00FFF3C0
00000000
00000000
00000000
00000000
00000000
00000000
ENDCHAR
STARTCHAR char117
ENCODING 252
SWIDTH 1846 0
DWIDTH 28 0
BBX 28 28 0 -6
BITMAP
00000000
00000000
003CF000
003CF000
003CF000
003CF000
00000000
00000000
0F0003C0
0F0003C0
0F0003C0
0F0003C0
0F0003C0
0F0003C0
0F0003C0
0F0003C0
0F0003C0
0F0003C0
03C00FC0
03C00FC0
00FFF3C0
00FFF3C0
00000000
00000000
00000000
00000000
00000000
00000000
ENDCHAR
STARTCHAR char121
ENCODING 253
SWIDTH 1846 0
DWIDTH 28 0
BBX 28 28 0 -6
BITMAP
00000000
00000000
0000F000
0000F000
0003C000
0003C000
000F0000
000F0000
0F0003C0
0F0003C0
0F0003C0
0F0003C0
0F0003C0
0F0003C0
0F0003C0
0F0003C0
0F0003C0
0F0003C0
03C00FC0
03C00FC0
00FFF3C0
00FFF3C0
000003C0
000003C0
03C00F00
03C00F00
00FFFC00
00FFFC00
ENDCHAR
STARTCHAR char254
ENCODING 254
SWIDTH 1846 0
DWIDTH 28 0
BBX 28 28 0 -6
BITMAP
00000000
00000000
0F000000
0F000000
0F000000
0F000000
0F000000
0F000000
0F3FF000
0F3FF000
0FC03C00
0FC03C00
0F000F00
0F000F00
0F0003C0
0F0003C0
0F000F00
0F000F00
0FC03C00
0FC03C00
0F3FF000
0F3FF000
0F000000
0F000000
0F000000
0F000000
0F000000
0F000000
ENDCHAR
STARTCHAR char121
ENCODING 255
SWIDTH 1846 0
DWIDTH 28 0
BBX 28 28 0 -6
BITMAP
00000000
00000000
003CF000
003CF000
003CF000
003CF000
00000000
00000000
0F0003C0
0F0003C0
0F0003C0
0F0003C0
0F0003C0
0F0003C0
0F0003C0
0F0003C0
0F0003C0
0F0003C0
03C00FC0
03C00FC0
00FFF3C0
00FFF3C0
000003C0
000003C0
03C00F00
03C00F00
00FFFC00
00FFFC00
ENDCHAR
STARTCHAR char97
ENCODING 257
SWIDTH 1846 0
DWIDTH 28 0
BBX 28 28 0 -6
BITMAP
00000000
00000000
00000000
00000000
03FFFF00
03FFFF00
00000000
00000000
00FFFF00
00FFFF00
03C003C0
03C003C0
000003C0
000003C0
03FFFFC0
03FFFFC0
0F0003C0
0F0003C0
0F0003C0
0F0003C0
03FFFCC0
03FFFCC0
00000000
00000000
00000000
00000000
00000000
00000000
ENDCHAR
STARTCHAR char105
ENCODING 299
SWIDTH 1846 0
DWIDTH 28 0
BBX 28 28 0 -6
BITMAP
00000000
00000000
00000000
00000000
00FFF000
00FFF000
00000000
00000000
003F0000
003F0000
000F0000
000F0000
000F0000
000F0000
000F0000
000F0000
000F0000
000F0000
000F0000
000F0000
03FFFC00
03FFFC00
00000000
00000000
00000000
00000000
00000000
00000000
ENDCHAR
STARTCHAR char108
ENCODING 322
SWIDTH 1846 0
DWIDTH 28 0
BBX 28 28 0 -6
BITMAP
00000000
00000000
00FF0000
00FF0000
000F0000
000F0000
000F0000
000F0000
000F3C00
000F3C00
000FC000
000FC000
003F0000
003F0000
03CF0000
03CF0000
000F0000
000F0000
000F0000
000F0000
03FFFC00
03FFFC00
00000000
00000000
00000000
00000000
00000000
00000000
ENDCHAR
STARTCHAR char111
ENCODING 333
SWIDTH 1846 0
DWIDTH 28 0
BBX 28 28 0 -6
BITMAP
00000000
00000000
00000000
00000000
0FFFFF00
0FFFFF00
00000000
00000000
03FFFC00
03FFFC00
0F000F00
0F000F00
3C0003C0
3C0003C0
3C0003C0
3C0003C0
3C0003C0
3C0003C0
0F000F00
0F000F00
03FFFC00
03FFFC00
00000000
00000000
00000000
00000000
00000000
00000000
ENDCHAR
STARTCHAR char102
ENCODING 383
SWIDTH 1846 0
DWIDTH 28 0
BBX 28 28 0 -6
BITMAP
00000000
00000000
000FC000
000FC000
003CF000
003CF000
003C0000
003C0000
003C0000
003C0000
00FC0000
00FC0000
003C0000
003C0000
003C0000
003C0000
003C0000
003C0000
003C0000
003C0000
003C0000
003C0000
00000000
00000000
00000000
00000000
00000000
00000000
ENDCHAR
STARTCHAR char28
ENCODING 960
SWIDTH 1846 0
DWIDTH 28 0
BBX 28 28 0 -6
BITMAP
00000000
00000000
00000000
00000000
00000000
00000000
00000000
00000000
3FFFFFC0
3FFFFFC0
3FFFFFC0
3FFFFFC0
03F0FC00
03F0FC00
03F0FC00
03F0FC00
03F0FC00
03F0FC00
03F0FC00
03F0FC00
03F0FC00
03F0FC00
00000000
00000000
00000000
00000000
00000000
00000000
ENDCHAR
STARTCHAR item_rune
ENCODING 966
SWIDTH 1846 0
DWIDTH 28 0
BBX 28 28 0 -6
BITMAP
00000000
00000000
00000000
00000000
00000000
00000000
00000000
00000000
03F3FC00
03F3FC00
0FCFFF00
0FCFFF00
3F3F0FC0
3F3F0FC0
3F3F0FC0
3F3F0FC0
3F3F0FC0
3F3F0FC0
0FFFFF00
0FFFFF00
03FFFC00
03FFFC00
003F0000
003F0000
003F0000
003F0000
003F0000
003F0000
ENDCHAR
STARTCHAR char8208
ENCODING 8208
SWIDTH 1846 0
DWIDTH 28 0
BBX 28 28 0 -6
BITMAP
00000000
00000000
00000000
00000000
00000000
00000000
00000000
00000000
00000000
00000000
00000000
00000000
00FFF000
00FFF000
00000000
00000000
00000000
00000000
00000000
00000000
00000000
00000000
00000000
00000000
00000000
00000000
00000000
00000000
ENDCHAR
STARTCHAR char8209
ENCODING 8209
SWIDTH 1846 0
DWIDTH 28 0
BBX 28 28 0 -6
BITMAP
00000000
00000000
00000000
00000000
00000000
00000000
00000000
00000000
00000000
00000000
00000000
00000000
00FFF000
00FFF000
00000000
00000000
00000000
00000000
00000000
00000000
00000000
00000000
00000000
00000000
00000000
00000000
00000000
00000000
ENDCHAR
STARTCHAR char8210
ENCODING 8210
SWIDTH 1846 0
DWIDTH 28 0
BBX 28 28 0 -6
BITMAP
00000000
00000000
00000000
00000000
00000000
00000000
00000000
00000000
00000000
00000000
00000000
00000000
03FFFC00
03FFFC00
00000000
00000000
00000000
00000000
00000000
00000000
00000000
00000000
00000000
00000000
00000000
00000000
00000000
00000000
ENDCHAR
STARTCHAR char8211
ENCODING 8211
SWIDTH 1846 0
DWIDTH 28 0
BBX 28 28 0 -6
BITMAP
00000000
00000000
00000000
00000000
00000000
00000000
00000000
00000000
00000000
00000000
00000000
00000000
0FFFFF00
0FFFFF00
00000000
00000000
00000000
00000000
00000000
00000000
00000000
00000000
00000000
00000000
00000000
00000000
00000000
00000000
ENDCHAR
STARTCHAR char8212
ENCODING 8212
SWIDTH 1846 0
DWIDTH 28 0
BBX 28 28 0 -6
BITMAP
00000000
00000000
00000000
00000000
00000000
00000000
00000000
00000000
00000000
00000000
00000000
00000000
3FFFFFC0
3FFFFFC0
00000000
00000000
00000000
00000000
00000000
00000000
00000000
00000000
00000000
00000000
00000000
00000000
00000000
00000000
ENDCHAR
STARTCHAR char8213
ENCODING 8213
SWIDTH 1846 0
DWIDTH 28 0
BBX 28 28 0 -6
BITMAP
00000000
00000000
00000000
00000000
00000000
00000000
00000000
00000000
00000000
00000000
00000000
00000000
FFFFFFF0
FFFFFFF0
00000000
00000000
00000000
00000000
00000000
00000000
00000000
00000000
00000000
00000000
00000000
00000000
00000000
00000000
ENDCHAR
STARTCHAR char8216
ENCODING 8216
SWIDTH 1846 0
DWIDTH 28 0
BBX 28 28 0 -6
BITMAP
0003C000
0003C000
000F0000
000F0000
000FC000
000FC000
000FC000
000FC000
00000000
00000000
00000000
00000000
00000000
00000000
00000000
00000000
00000000
00000000
00000000
00000000
00000000
00000000
00000000
00000000
00000000
00000000
00000000
00000000
ENDCHAR
STARTCHAR char8217
ENCODING 8217
SWIDTH 1846 0
DWIDTH 28 0
BBX 28 28 0 -6
BITMAP
003F0000
003F0000
003F0000
003F0000
000F0000
000F0000
003C0000
003C0000
00000000
00000000
00000000
00000000
00000000
00000000
00000000
00000000
00000000
00000000
00000000
00000000
00000000
00000000
00000000
00000000
00000000
00000000
00000000
00000000
ENDCHAR
STARTCHAR char8220
ENCODING 8220
SWIDTH 1846 0
DWIDTH 28 0
BBX 28 28 0 -6
BITMAP
003C3C00
003C3C00
00F0F000
00F0F000
00FCFC00
00FCFC00
00FCFC00
00FCFC00
00000000
00000000
00000000
00000000
00000000
00000000
00000000
00000000
00000000
00000000
00000000
00000000
00000000
00000000
00000000
00000000
00000000
00000000
00000000
00000000
ENDCHAR
STARTCHAR char8221
ENCODING 8221
SWIDTH 1846 0
DWIDTH 28 0
BBX 28 28 0 -6
BITMAP
03F3F000
03F3F000
03F3F000
03F3F000
00F0F000
00F0F000
03C3C000
03C3C000
00000000
00000000
00000000
00000000
00000000
00000000
00000000
00000000
00000000
00000000
00000000
00000000
00000000
00000000
00000000
00000000
00000000
00000000
00000000
00000000
ENDCHAR
STARTCHAR item_corpse
ENCODING 8224
SWIDTH 1846 0
DWIDTH 28 0
BBX 28 28 0 -6
BITMAP
00000000
00000000
00000000
00000000
003F0000
003F0000
003F0000
003F0000
003F0000
003F0000
0FFFFC00
0FFFFC00
0FFFFC00
0FFFFC00
0FFFFC00
0FFFFC00
003F0000
003F0000
003F0000
003F0000
003F0000
003F0000
003F0000
003F0000
003F0000
003F0000
00000000
00000000
ENDCHAR
STARTCHAR char1
ENCODING 8226
SWIDTH 1846 0
DWIDTH 28 0
BBX 28 28 0 -6
BITMAP
00000000
00000000
00000000
00000000
00000000
00000000
00000000
00000000
003F0000
003F0000
00FFC000
00FFC000
00FFC000
00FFC000
00FFC000
00FFC000
003F0000
003F0000
00000000
00000000
00000000
00000000
00000000
00000000
00000000
00000000
00000000
00000000
ENDCHAR
STARTCHAR item_missile
ENCODING 8227
SWIDTH 1846 0
DWIDTH 28 0
BBX 28 28 0 -6
BITMAP
00000000
00000000
00000000
00000000
00C00000
00C00000
00F00000
00F00000
0FFC0000
0FFC0000
03FC0000
03FC0000
00FF0000
00FF0000
000FC000
000FC000
0003F000
0003F000
0000F000
0000F000
00000C00
00000C00
00000300
00000300
00000000
00000000
00000000
00000000
ENDCHAR
STARTCHAR char133
ENCODING 8230
SWIDTH 1846 0
DWIDTH 28 0
BBX 28 28 0 -6
BITMAP
00000000
00000000
00000000
00000000
00000000
00000000
00000000
00000000
00000000
00000000
00000000
00000000
00000000
00000000
00000000
00000000
00000000
00000000
0F0F0F00
0F0F0F00
0F0F0F00
0F0F0F00
00000000
00000000
00000000
00000000
00000000
00000000
ENDCHAR
STARTCHAR char8242
ENCODING 8242
SWIDTH 1846 0
DWIDTH 28 0
BBX 28 28 0 -6
BITMAP
0003C000
0003C000
000F0000
000F0000
003C0000
003C0000
00300000
00300000
00000000
00000000
00000000
00000000
00000000
00000000
00000000
00000000
00000000
00000000
00000000
00000000
00000000
00000000
00000000
00000000
00000000
00000000
00000000
00000000
ENDCHAR
STARTCHAR char8243
ENCODING 8243
SWIDTH 1846 0
DWIDTH 28 0
BBX 28 28 0 -6
BITMAP
003C3C00
003C3C00
00F0F000
00F0F000
03C3C000
03C3C000
03030000
03030000
00000000
00000000
00000000
00000000
00000000
00000000
00000000
00000000
00000000
00000000
00000000
00000000
00000000
00000000
00000000
00000000
00000000
00000000
00000000
00000000
ENDCHAR
STARTCHAR char8244
ENCODING 8244
SWIDTH 1846 0
DWIDTH 28 0
BBX 28 28 0 -6
BITMAP
00F3CF00
00F3CF00
03CF3C00
03CF3C00
0F3CF000
0F3CF000
0C30C000
0C30C000
00000000
00000000
00000000
00000000
00000000
00000000
00000000
00000000
00000000
00000000
00000000
00000000
00000000
00000000
00000000
00000000
00000000
00000000
00000000
00000000
ENDCHAR
STARTCHAR char8242
ENCODING 8245
SWIDTH 1846 0
DWIDTH 28 0
BBX 28 28 0 -6
BITMAP
003C0000
003C0000
000F0000
000F0000
0003C000
0003C000
0000C000
0000C000
00000000
00000000
00000000
00000000
00000000
00000000
00000000
00000000
00000000
00000000
00000000
00000000
00000000
00000000
00000000
00000000
00000000
00000000
00000000
00000000
ENDCHAR
STARTCHAR char8243
ENCODING 8246
SWIDTH 1846 0
DWIDTH 28 0
BBX 28 28 0 -6
BITMAP
03C3C000
03C3C000
00F0F000
00F0F000
003C3C00
003C3C00
000C0C00
000C0C00
00000000
00000000
00000000
00000000
00000000
00000000
00000000
00000000
00000000
00000000
00000000
00000000
00000000
00000000
00000000
00000000
00000000
00000000
00000000
00000000
ENDCHAR
STARTCHAR char8244
ENCODING 8247
SWIDTH 1846 0
DWIDTH 28 0
BBX 28 28 0 -6
BITMAP
0F3CF000
0F3CF000
03CF3C00
03CF3C00
00F3CF00
00F3CF00
0030C300
0030C300
00000000
00000000
00000000
00000000
00000000
00000000
00000000
00000000
00000000
00000000
00000000
00000000
00000000
00000000
00000000
00000000
00000000
00000000
00000000
00000000
ENDCHAR
STARTCHAR char8592
ENCODING 8592
SWIDTH 1846 0
DWIDTH 28 0
BBX 28 28 0 -6
BITMAP
00000000
00000000
00000000
00000000
00000000
00000000
00FC0000
00FC0000
03F00000
03F00000
0FC00000
0FC00000
3FFFFFC0
3FFFFFC0
3FFFFFC0
3FFFFFC0
0FC00000
0FC00000
03F00000
03F00000
00FC0000
00FC0000
00000000
00000000
00000000
00000000
00000000
00000000
ENDCHAR
STARTCHAR char8593
ENCODING 8593
SWIDTH 1846 0
DWIDTH 28 0
BBX 28 28 0 -6
BITMAP
00000000
00000000
000F0000
000F0000
003FC000
003FC000
00FFF000
00FFF000
03FFFC00
03FFFC00
03CF3C00
03CF3C00
030F0C00
030F0C00
000F0000
000F0000
000F0000
000F0000
000F0000
000F0000
000F0000
000F0000
000F0000
000F0000
000F0000
000F0000
00000000
00000000
ENDCHAR
STARTCHAR char8594
ENCODING 8594
SWIDTH 1846 0
DWIDTH 28 0
BBX 28 28 0 -6
BITMAP
00000000
00000000
00000000
00000000
00000000
00000000
0003F000
0003F000
0000FC00
0000FC00
00003F00
00003F00
3FFFFFC0
3FFFFFC0
3FFFFFC0
3FFFFFC0
00003F00
00003F00
0000FC00
0000FC00
0003F000
0003F000
00000000
00000000
00000000
00000000
00000000
00000000
ENDCHAR
STARTCHAR char8595
ENCODING 8595
SWIDTH 1846 0
DWIDTH 28 0
BBX 28 28 0 -6
BITMAP
00000000
00000000
000F0000
000F0000
000F0000
000F0000
000F0000
000F0000
000F0000
000F0000
000F0000
000F0000
000F0000
000F0000
030F0C00
030F0C00
03CF3C00
03CF3C00
03FFFC00
03FFFC00
00FFF000
00FFF000
003FC000
003FC000
000F0000
000F0000
00000000
00000000
ENDCHAR
STARTCHAR stairs_up
ENCODING 8599
SWIDTH 1846 0
DWIDTH 28 0
BBX 28 28 0 -6
BITMAP
00000000
00000000
00000000
00000000
00003300
00003300
00003CC0
00003CC0
00003300
00003300
000FFCC0
000FFCC0
000FFF00
000FFF00
000FFC00
000FFC00
03FFF000
03FFF000
03FFC000
03FFC000
03FF0000
03FF0000
FFFC0000
FFFC0000
00000000
00000000
00000000
00000000
ENDCHAR
STARTCHAR stairs_down
ENCODING 8600
SWIDTH 1846 0
DWIDTH 28 0
BBX 28 28 0 -6
BITMAP
00000000
00000000
FFC00000
FFC00000
FFC00000
FFC00000
FFC00000
FFC00000
3FFF0000
3FFF0000
0FFF0000
0FFF0000
03FF0000
03FF0000
00FFFC00
00FFFC00
003FF000
003FF000
000FFC00
000FFC00
0003F300
0003F300
0000FCC0
0000FCC0
00003300
00003300
00000000
00000000
ENDCHAR
STARTCHAR char8710
ENCODING 8710
SWIDTH 1846 0
DWIDTH 28 0
BBX 28 28 0 -6
BITMAP
00000000
00000000
000F0000
000F0000
003FC000
003FC000
003FC000
003FC000
00FFF000
00FFF000
00F3F000
00F3F000
03C0FC00
03C0FC00
03C0FC00
03C0FC00
0F003F00
0F003F00
0FFFFF00
0FFFFF00
3FFFFFC0
3FFFFFC0
00000000
00000000
00000000
00000000
00000000
00000000
ENDCHAR
STARTCHAR char8734
ENCODING 8734
SWIDTH 1846 0
DWIDTH 28 0
BBX 28 28 0 -6
BITMAP
00000000
00000000
00000000
00000000
00000000
00000000
00000000
00000000
03F0FC00
03F0FC00
0FFFFF00
0FFFFF00
3F0F0FC0
3F0F0FC0
3F0F0FC0
3F0F0FC0
0FFFFF00
0FFFFF00
03F0FC00
03F0FC00
00000000
00000000
00000000
00000000
00000000
00000000
00000000
00000000
ENDCHAR
STARTCHAR arch
ENCODING 8745
SWIDTH 1846 0
DWIDTH 28 0
BBX 28 28 0 -6
BITMAP
00000000
00000000
003FC000
003FC000
00F0F000
00F0F000
03C03C00
03C03C00
03C03C00
03C03C00
0F000F00
0F000F00
0F000F00
0F000F00
0F000F00
0F000F00
0F000F00
0F000F00
0F000F00
0F000F00
0F000F00
0F000F00
00000000
00000000
00000000
00000000
00000000
00000000
ENDCHAR
STARTCHAR char8746
ENCODING 8746
SWIDTH 1846 0
DWIDTH 28 0
BBX 28 28 0 -6
BITMAP
00000000
00000000
3F003F00
3F003F00
3F003F00
3F003F00
3F003F00
3F003F00
3F003F00
3F003F00
3F003F00
3F003F00
3F003F00
3F003F00
0FC0FC00
0FC0FC00
0FC0FC00
0FC0FC00
03F3F000
03F3F000
00FFC000
00FFC000
00000000
00000000
00000000
00000000
00000000
00000000
ENDCHAR
STARTCHAR wavy
ENCODING 8776
SWIDTH 1846 0
DWIDTH 28 0
BBX 28 28 0 -6
BITMAP
00000000
00000000
00000000
00000000
00000000
00000000
3C00F000
3C00F000
C3030C00
C3030C00
030C0C30
030C0C30
00F003C0
00F003C0
3C00F000
3C00F000
C3030C00
C3030C00
030C0C30
030C0C30
00F003C0
00F003C0
00000000
00000000
00000000
00000000
00000000
00000000
ENDCHAR
STARTCHAR char29
ENCODING 8800
SWIDTH 1846 0
DWIDTH 28 0
BBX 28 28 0 -6
BITMAP
00000000
00000000
00000000
00000000
00000000
00000000
0000FC00
0000FC00
0FFFFF00
0FFFFF00
0FFFFF00
0FFFFF00
000FC000
000FC000
003F0000
003F0000
0FFFFF00
0FFFFF00
0FFFFF00
0FFFFF00
03F00000
03F00000
00000000
00000000
00000000
00000000
00000000
00000000
ENDCHAR
STARTCHAR char26
ENCODING 8804
SWIDTH 1846 0
DWIDTH 28 0
BBX 28 28 0 -6
BITMAP
00000000
00000000
00000000
00000000
00003FC0
00003FC0
000FFC00
000FFC00
03FF0000
03FF0000
3FC00000
3FC00000
03FF0000
03FF0000
000FFC00
000FFC00
00003FC0
00003FC0
3FFFFFC0
3FFFFFC0
3FFFFFC0
3FFFFFC0
00000000
00000000
00000000
00000000
00000000
00000000
ENDCHAR
STARTCHAR char27
ENCODING 8805
SWIDTH 1846 0
DWIDTH 28 0
BBX 28 28 0 -6
BITMAP
00000000
00000000
00000000
00000000
3FC00000
3FC00000
03FF0000
03FF0000
000FFC00
000FFC00
00003FC0
00003FC0
000FFC00
000FFC00
03FF0000
03FF0000
3FC00000
3FC00000
3FFFFFC0
3FFFFFC0
3FFFFFC0
3FFFFFC0
00000000
00000000
00000000
00000000
00000000
00000000
ENDCHAR
STARTCHAR draw_left
ENCODING 8826
SWIDTH 1846 0
DWIDTH 28 0
BBX 28 28 0 -6
BITMAP
000003F0
000003F0
00000FF0
00000FF0
00003FC0
00003FC0
0000FF00
0000FF00
0003FC00
0003FC00
0003F000
0003F000
000FF000
000FF000
000FF000
000FF000
0003F000
0003F000
0003FC00
0003FC00
0000FF00
0000FF00
00003FC0
00003FC0
00000FF0
00000FF0
000003F0
000003F0
ENDCHAR
STARTCHAR draw_right
ENCODING 8827
SWIDTH 1846 0
DWIDTH 28 0
BBX 28 28 0 -6
BITMAP
FC000000
FC000000
FF000000
FF000000
3FC00000
3FC00000
0FF00000
0FF00000
03FC0000
03FC0000
00FC0000
00FC0000
00FF0000
00FF0000
00FF0000
00FF0000
00FC0000
00FC0000
03FC0000
03FC0000
0FF00000
0FF00000
3FC00000
3FC00000
FF000000
FF000000
FC000000
FC000000
ENDCHAR
STARTCHAR draw_down
ENCODING 8910
SWIDTH 1846 0
DWIDTH 28 0
BBX 28 28 0 -6
BITMAP
F00000F0
F00000F0
FC0003F0
FC0003F0
FF000FF0
FF000FF0
3FC03FC0
3FC03FC0
0FFFFF00
0FFFFF00
03FFFC00
03FFFC00
00FFF000
00FFF000
000F0000
000F0000
00000000
00000000
00000000
00000000
00000000
00000000
00000000
00000000
00000000
00000000
00000000
00000000
ENDCHAR
STARTCHAR draw_up
ENCODING 8911
SWIDTH 1846 0
DWIDTH 28 0
BBX 28 28 0 -6
BITMAP
00000000
00000000
00000000
00000000
00000000
00000000
00000000
00000000
00000000
00000000
00000000
00000000
000F0000
000F0000
00FFF000
00FFF000
03FFFC00
03FFFC00
0FFFFF00
0FFFFF00
3FC03FC0
3FC03FC0
FF000FF0
FF000FF0
FC0003F0
FC0003F0
F00000F0
F00000F0
ENDCHAR
STARTCHAR item_detected
ENCODING 8962
SWIDTH 1846 0
DWIDTH 28 0
BBX 28 28 0 -6
BITMAP
00000000
00000000
000F0000
000F0000
003FC000
003FC000
00F0F000
00F0F000
03C03C00
03C03C00
0F000F00
0F000F00
0F000F00
0F000F00
0F000F00
0F000F00
0F000F00
0F000F00
0F000F00
0F000F00
0FFFFF00
0FFFFF00
00000000
00000000
00000000
00000000
00000000
00000000
ENDCHAR
STARTCHAR char8992
ENCODING 8992
SWIDTH 1846 0
DWIDTH 28 0
BBX 28 28 0 -6
BITMAP
00000000
00000000
00000000
00000000
000FFC00
000FFC00
003F3F00
003F3F00
003F0000
003F0000
003F0000
003F0000
003F0000
003F0000
003F0000
003F0000
003F0000
003F0000
003F0000
003F0000
003F0000
003F0000
003F0000
003F0000
003F0000
003F0000
003F0000
003F0000
ENDCHAR
STARTCHAR char8993
ENCODING 8993
SWIDTH 1846 0
DWIDTH 28 0
BBX 28 28 0 -6
BITMAP
003F0000
003F0000
003F0000
003F0000
003F0000
003F0000
003F0000
003F0000
003F0000
003F0000
003F0000
003F0000
003F0000
003F0000
003F0000
003F0000
003F0000
003F0000
3F3F0000
3F3F0000
3F3F0000
3F3F0000
0FFC0000
0FFC0000
00000000
00000000
00000000
00000000
ENDCHAR
STARTCHAR char16
ENCODING 9146
SWIDTH 1846 0
DWIDTH 28 0
BBX 28 28 0 -6
BITMAP
FFFFFFF0
FFFFFFF0
FFFFFFF0
FFFFFFF0
00000000
00000000
00000000
00000000
00000000
00000000
00000000
00000000
00000000
00000000
00000000
00000000
00000000
00000000
00000000
00000000
00000000
00000000
00000000
00000000
00000000
00000000
00000000
00000000
ENDCHAR
STARTCHAR char17
ENCODING 9147
SWIDTH 1846 0
DWIDTH 28 0
BBX 28 28 0 -6
BITMAP
00000000
00000000
00000000
00000000
00000000
00000000
FFFFFFF0
FFFFFFF0
FFFFFFF0
FFFFFFF0
00000000
00000000
00000000
00000000
00000000
00000000
00000000
00000000
00000000
00000000
00000000
00000000
00000000
00000000
00000000
00000000
00000000
00000000
ENDCHAR
STARTCHAR char19
ENCODING 9148
SWIDTH 1846 0
DWIDTH 28 0
BBX 28 28 0 -6
BITMAP
00000000
00000000
00000000
00000000
00000000
00000000
00000000
00000000
00000000
00000000
00000000
00000000
00000000
00000000
00000000
00000000
00000000
00000000
FFFFFFF0
FFFFFFF0
FFFFFFF0
FFFFFFF0
00000000
00000000
00000000
00000000
00000000
00000000
ENDCHAR
STARTCHAR char20
ENCODING 9149
SWIDTH 1846 0
DWIDTH 28 0
BBX 28 28 0 -6
BITMAP
00000000
00000000
00000000
00000000
00000000
00000000
00000000
00000000
00000000
00000000
00000000
00000000
00000000
00000000
00000000
00000000
00000000
00000000
00000000
00000000
00000000
00000000
00000000
00000000
FFFFFFF0
FFFFFFF0
FFFFFFF0
FFFFFFF0
ENDCHAR
STARTCHAR char3
ENCODING 9225
SWIDTH 1846 0
DWIDTH 28 0
BBX 28 28 0 -6
BITMAP
00000000
00000000
3F3F0000
3F3F0000
3F3F0000
3F3F0000
3FFF0000
3FFF0000
3F3F0000
3F3F0000
3F3F0000
3F3F0000
000FFFC0
000FFFC0
0000FC00
0000FC00
0000FC00
0000FC00
0000FC00
0000FC00
0000FC00
0000FC00
00000000
00000000
00000000
00000000
00000000
00000000
ENDCHAR
STARTCHAR char6
ENCODING 9226
SWIDTH 1846 0
DWIDTH 28 0
BBX 28 28 0 -6
BITMAP
00000000
00000000
3F000000
3F000000
3F000000
3F000000
3F000000
3F000000
3F000000
3F000000
3F03FFC0
3F03FFC0
3FFFF000
3FFFF000
0003FF00
0003FF00
0003F000
0003F000
0003F000
0003F000
0003F000
0003F000
00000000
00000000
00000000
00000000
00000000
00000000
ENDCHAR
STARTCHAR char10
ENCODING 9227
SWIDTH 1846 0
DWIDTH 28 0
BBX 28 28 0 -6
BITMAP
00000000
00000000
3F0FC000
3F0FC000
3F0FC000
3F0FC000
3F0FC000
3F0FC000
0FFF0000
0FFF0000
03FFFFC0
03FFFFC0
00F0FC00
00F0FC00
0000FC00
0000FC00
0000FC00
0000FC00
0000FC00
0000FC00
0000FC00
0000FC00
00000000
00000000
00000000
00000000
00000000
00000000
ENDCHAR
STARTCHAR char4
ENCODING 9228
SWIDTH 1846 0
DWIDTH 28 0
BBX 28 28 0 -6
BITMAP
00000000
00000000
3FFC0000
3FFC0000
3F000000
3F000000
3FF00000
3FF00000
3F000000
3F000000
3F03FFC0
3F03FFC0
3F03F000
3F03F000
0003FF00
0003FF00
0003F000
0003F000
0003F000
0003F000
0003F000
0003F000
00000000
00000000
00000000
00000000
00000000
00000000
ENDCHAR
STARTCHAR char5
ENCODING 9229
SWIDTH 1846 0
DWIDTH 28 0
BBX 28 28 0 -6
BITMAP
00000000
00000000
0FF00000
0FF00000
3F3C0000
3F3C0000
3F000000
3F000000
3F000000
3F000000
3F3FFF00
3F3FFF00
0FF3F3C0
0FF3F3C0
0003F3C0
0003F3C0
0003FF00
0003FF00
0003FFC0
0003FFC0
0003F3C0
0003F3C0
00000000
00000000
00000000
00000000
00000000
00000000
ENDCHAR
STARTCHAR char9
ENCODING 9252
SWIDTH 1846 0
DWIDTH 28 0
BBX 28 28 0 -6
BITMAP
00000000
00000000
3F0FC000
3F0FC000
3FCFC000
3FCFC000
3FFFC000
3FFFC000
3FFFC000
3FFFC000
3F3FF000
3F3FF000
3F0FF000
3F0FF000
0003F000
0003F000
0003F000
0003F000
0003FFC0
0003FFC0
0003FFC0
0003FFC0
00000000
00000000
00000000
00000000
00000000
00000000
ENDCHAR
STARTCHAR char18
ENCODING 9472
SWIDTH 1846 0
DWIDTH 28 0
BBX 28 28 0 -6
BITMAP
00000000
00000000
00000000
00000000
00000000
00000000
00000000
00000000
00000000
00000000
00000000
00000000
FFFFFFF0
FFFFFFF0
FFFFFFF0
FFFFFFF0
00000000
00000000
00000000
00000000
00000000
00000000
00000000
00000000
00000000
00000000
00000000
00000000
ENDCHAR
STARTCHAR char9474
ENCODING 9474
SWIDTH 1846 0
DWIDTH 28 0
BBX 28 28 0 -6
BITMAP
000F0000
000F0000
000F0000
000F0000
000F0000
000F0000
000F0000
000F0000
000F0000
000F0000
000F0000
000F0000
000F0000
000F0000
000F0000
000F0000
000F0000
000F0000
000F0000
000F0000
000F0000
000F0000
000F0000
000F0000
000F0000
000F0000
000F0000
000F0000
ENDCHAR
STARTCHAR draw_horiz
ENCODING 9476
SWIDTH 1846 0
DWIDTH 28 0
BBX 28 28 0 -6
BITMAP
00000000
00000000
00000000
00000000
00000000
00000000
00000000
00000000
0F00F000
0F00F000
FFC3FF00
FFC3FF00
FFFFFFF0
FFFFFFF0
F0FF0FF0
F0FF0FF0
003C00F0
003C00F0
00000000
00000000
00000000
00000000
00000000
00000000
00000000
00000000
00000000
00000000
ENDCHAR
STARTCHAR draw_vert
ENCODING 9478
SWIDTH 1846 0
DWIDTH 28 0
BBX 28 28 0 -6
BITMAP
000FC000
000FC000
000FC000
000FC000
0003F000
0003F000
0003F000
0003F000
000FC000
000FC000
003F0000
003F0000
003F0000
003F0000
000FC000
000FC000
0003F000
0003F000
0003F000
0003F000
000FC000
000FC000
000FC000
000FC000
003F0000
003F0000
003F0000
003F0000
ENDCHAR
STARTCHAR char13
ENCODING 9484
SWIDTH 1846 0
DWIDTH 28 0
BBX 28 28 0 -6
BITMAP
00000000
00000000
00000000
00000000
00000000
00000000
00000000
00000000
00000000
00000000
00000000
00000000
000FFFF0
000FFFF0
000FFFF0
000FFFF0
000F0000
000F0000
000F0000
000F0000
000F0000
000F0000
000F0000
000F0000
000F0000
000F0000
000F0000
000F0000
ENDCHAR
STARTCHAR char12
ENCODING 9488
SWIDTH 1846 0
DWIDTH 28 0
BBX 28 28 0 -6
BITMAP
00000000
00000000
00000000
00000000
00000000
00000000
00000000
00000000
00000000
00000000
00000000
00000000
FFFF0000
FFFF0000
FFFF0000
FFFF0000
000F0000
000F0000
000F0000
000F0000
000F0000
000F0000
000F0000
000F0000
000F0000
000F0000
000F0000
000F0000
ENDCHAR
STARTCHAR char14
ENCODING 9492
SWIDTH 1846 0
DWIDTH 28 0
BBX 28 28 0 -6
BITMAP
000F0000
000F0000
000F0000
000F0000
000F0000
000F0000
000F0000
000F0000
000F0000
000F0000
000F0000
000F0000
000FFFF0
000FFFF0
000FFFF0
000FFFF0
00000000
00000000
00000000
00000000
00000000
00000000
00000000
00000000
00000000
00000000
00000000
00000000
ENDCHAR
STARTCHAR char11
ENCODING 9496
SWIDTH 1846 0
DWIDTH 28 0
BBX 28 28 0 -6
BITMAP
000F0000
000F0000
000F0000
000F0000
000F0000
000F0000
000F0000
000F0000
000F0000
000F0000
000F0000
000F0000
FFFF0000
FFFF0000
FFFF0000
FFFF0000
00000000
00000000
00000000
00000000
00000000
00000000
00000000
00000000
00000000
00000000
00000000
00000000
ENDCHAR
STARTCHAR char9500
ENCODING 9500
SWIDTH 1846 0
DWIDTH 28 0
BBX 28 28 0 -6
BITMAP
000F0000
000F0000
000F0000
000F0000
000F0000
000F0000
000F0000
000F0000
000F0000
000F0000
000F0000
000F0000
000FFFF0
000FFFF0
000FFFF0
000FFFF0
000F0000
000F0000
000F0000
000F0000
000F0000
000F0000
000F0000
000F0000
000F0000
000F0000
000F0000
000F0000
ENDCHAR
STARTCHAR char9508
ENCODING 9508
SWIDTH 1846 0
DWIDTH 28 0
BBX 28 28 0 -6
BITMAP
000F0000
000F0000
000F0000
000F0000
000F0000
000F0000
000F0000
000F0000
000F0000
000F0000
000F0000
000F0000
FFFF0000
FFFF0000
FFFF0000
FFFF0000
000F0000
000F0000
000F0000
000F0000
000F0000
000F0000
000F0000
000F0000
000F0000
000F0000
000F0000
000F0000
ENDCHAR
STARTCHAR char9516
ENCODING 9516
SWIDTH 1846 0
DWIDTH 28 0
BBX 28 28 0 -6
BITMAP
00000000
00000000
00000000
00000000
00000000
00000000
00000000
00000000
00000000
00000000
00000000
00000000
FFFFFFF0
FFFFFFF0
FFFFFFF0
FFFFFFF0
000F0000
000F0000
000F0000
000F0000
000F0000
000F0000
000F0000
000F0000
000F0000
000F0000
000F0000
000F0000
ENDCHAR
STARTCHAR char9524
ENCODING 9524
SWIDTH 1846 0
DWIDTH 28 0
BBX 28 28 0 -6
BITMAP
000F0000
000F0000
000F0000
000F0000
000F0000
000F0000
000F0000
000F0000
000F0000
000F0000
000F0000
000F0000
FFFFFFF0
FFFFFFF0
FFFFFFF0
FFFFFFF0
00000000
00000000
00000000
00000000
00000000
00000000
00000000
00000000
00000000
00000000
00000000
00000000
ENDCHAR
STARTCHAR char15
ENCODING 9532
SWIDTH 1846 0
DWIDTH 28 0
BBX 28 28 0 -6
BITMAP
000F0000
000F0000
000F0000
000F0000
000F0000
000F0000
000F0000
000F0000
000F0000
000F0000
000F0000
000F0000
FFFFFFF0
FFFFFFF0
FFFFFFF0
FFFFFFF0
000F0000
000F0000
000F0000
000F0000
000F0000
000F0000
000F0000
000F0000
000F0000
000F0000
000F0000
000F0000
ENDCHAR
STARTCHAR frame_horiz
ENCODING 9552
SWIDTH 1846 0
DWIDTH 28 0
BBX 28 28 0 -6
BITMAP
00000000
00000000
00000000
00000000
00000000
00000000
00000000
00000000
FFFFFFF0
FFFFFFF0
FFFFFFF0
FFFFFFF0
00000000
00000000
FFFFFFF0
FFFFFFF0
FFFFFFF0
FFFFFFF0
00000000
00000000
00000000
00000000
00000000
00000000
00000000
00000000
00000000
00000000
ENDCHAR
STARTCHAR frame_vert
ENCODING 9553
SWIDTH 1846 0
DWIDTH 28 0
BBX 28 28 0 -6
BITMAP
00F3C000
00F3C000
00F3C000
00F3C000
00F3C000
00F3C000
00F3C000
00F3C000
00F3C000
00F3C000
00F3C000
00F3C000
00F3C000
00F3C000
00F3C000
00F3C000
00F3C000
00F3C000
00F3C000
00F3C000
00F3C000
00F3C000
00F3C000
00F3C000
00F3C000
00F3C000
00F3C000
00F3C000
ENDCHAR
STARTCHAR frame_top_left
ENCODING 9556
SWIDTH 1846 0
DWIDTH 28 0
BBX 28 28 0 -6
BITMAP
00000000
00000000
00000000
00000000
00000000
00000000
00000000
00000000
00FFFFF0
00FFFFF0
00FFFFF0
00FFFFF0
00F00000
00F00000
00F3FFF0
00F3FFF0
00F3FFF0
00F3FFF0
00F3C000
00F3C000
00F3C000
00F3C000
00F3C000
00F3C000
00F3C000
00F3C000
00F3C000
00F3C000
ENDCHAR
STARTCHAR frame_top_right
ENCODING 9559
SWIDTH 1846 0
DWIDTH 28 0
BBX 28 28 0 -6
BITMAP
00000000
00000000
00000000
00000000
00000000
00000000
00000000
00000000
FFFFC000
FFFFC000
FFFFC000
FFFFC000
0003C000
0003C000
FFF3C000
FFF3C000
FFF3C000
FFF3C000
00F3C000
00F3C000
00F3C000
00F3C000
00F3C000
00F3C000
00F3C000
00F3C000
00F3C000
00F3C000
ENDCHAR
STARTCHAR char13
ENCODING 9562
SWIDTH 1846 0
DWIDTH 28 0
BBX 28 28 0 -6
BITMAP
00F3C000
00F3C000
00F3C000
00F3C000
00F3C000
00F3C000
00F3C000
00F3C000
00F3FFF0
00F3FFF0
00F3FFF0
00F3FFF0
00F00000
00F00000
00FFFFF0
00FFFFF0
00FFFFF0
00FFFFF0
00000000
00000000
00000000
00000000
00000000
00000000
00000000
00000000
00000000
00000000
ENDCHAR
STARTCHAR frame_bottom_right
ENCODING 9565
SWIDTH 1846 0
DWIDTH 28 0
BBX 28 28 0 -6
BITMAP
00F3C000
00F3C000
00F3C000
00F3C000
00F3C000
00F3C000
00F3C000
00F3C000
FFF3C000
FFF3C000
FFF3C000
FFF3C000
0003C000
0003C000
FFFFC000
FFFFC000
FFFFC000
FFFFC000
00000000
00000000
00000000
00000000
00000000
00000000
00000000
00000000
00000000
00000000
ENDCHAR
STARTCHAR draw_top_left
ENCODING 9581
SWIDTH 1846 0
DWIDTH 28 0
BBX 28 28 0 -6
BITMAP
00000000
00000000
00000000
00000000
00000000
00000000
00000000
00000000
00000000
00000000
000003F0
000003F0
00003FF0
00003FF0
0000FFF0
0000FFF0
0003FC00
0003FC00
000FC000
000FC000
000FC000
000FC000
003F0000
003F0000
003F0000
003F0000
003F0000
003F0000
ENDCHAR
STARTCHAR draw_top_right
ENCODING 9582
SWIDTH 1846 0
DWIDTH 28 0
BBX 28 28 0 -6
BITMAP
00000000
00000000
00000000
00000000
00000000
00000000
00000000
00000000
00000000
00000000
FC000000
FC000000
FFC00000
FFC00000
FFF00000
FFF00000
03FC0000
03FC0000
003F0000
003F0000
003F0000
003F0000
000FC000
000FC000
000FC000
000FC000
000FC000
000FC000
ENDCHAR
STARTCHAR draw_bottom_right
ENCODING 9583
SWIDTH 1846 0
DWIDTH 28 0
BBX 28 28 0 -6
BITMAP
000FC000
000FC000
000FC000
000FC000
000FC000
000FC000
003F0000
003F0000
003F0000
003F0000
03FC0000
03FC0000
FFF00000
FFF00000
FFC00000
FFC00000
FC000000
FC000000
00000000
00000000
00000000
00000000
00000000
00000000
00000000
00000000
00000000
00000000
ENDCHAR
STARTCHAR draw_bottom_left
ENCODING 9584
SWIDTH 1846 0
DWIDTH 28 0
BBX 28 28 0 -6
BITMAP
003F0000
003F0000
003F0000
003F0000
003F0000
003F0000
000FC000
000FC000
000FC000
000FC000
0003FC00
0003FC00
0000FFF0
0000FFF0
00003FF0
00003FF0
000003F0
000003F0
00000000
00000000
00000000
00000000
00000000
00000000
00000000
00000000
00000000
00000000
ENDCHAR
STARTCHAR draw_slash
ENCODING 9585
SWIDTH 1846 0
DWIDTH 28 0
BBX 28 28 0 -6
BITMAP
000003F0
000003F0
00003FF0
00003FF0
00003F00
00003F00
0000FC00
0000FC00
0003FC00
0003FC00
0003F000
0003F000
000FC000
000FC000
003F0000
003F0000
00FC0000
00FC0000
03FC0000
03FC0000
03F00000
03F00000
0FC00000
0FC00000
FFC00000
FFC00000
FC000000
FC000000
ENDCHAR
STARTCHAR draw_backslash
ENCODING 9586
SWIDTH 1846 0
DWIDTH 28 0
BBX 28 28 0 -6
BITMAP
FC000000
FC000000
FC000000
FC000000
3F000000
3F000000
3FF00000
3FF00000
03F00000
03F00000
00FC0000
00FC0000
00FF0000
00FF0000
000FF000
000FF000
0003F000
0003F000
0000FC00
0000FC00
0000FFC0
0000FFC0
00000FC0
00000FC0
000003F0
000003F0
000003F0
000003F0
ENDCHAR
STARTCHAR char9608
ENCODING 9608
SWIDTH 1846 0
DWIDTH 28 0
BBX 28 28 0 -6
BITMAP
FFFFFFF0
FFFFFFF0
FFFFFFF0
FFFFFFF0
FFFFFFF0
FFFFFFF0
FFFFFFF0
FFFFFFF0
FFFFFFF0
FFFFFFF0
FFFFFFF0
FFFFFFF0
FFFFFFF0
FFFFFFF0
FFFFFFF0
FFFFFFF0
FFFFFFF0
FFFFFFF0
FFFFFFF0
FFFFFFF0
FFFFFFF0
FFFFFFF0
FFFFFFF0
FFFFFFF0
FFFFFFF0
FFFFFFF0
FFFFFFF0
FFFFFFF0
ENDCHAR
STARTCHAR wall_magic
ENCODING 9617
SWIDTH 1846 0
DWIDTH 28 0
BBX 28 28 0 -6
BITMAP
C3030C00
C3030C00
003000C0
003000C0
0C003000
0C003000
C0C30300
C0C30300
03000C00
03000C00
3030C0C0
3030C0C0
00000000
00000000
C3030C00
C3030C00
003000C0
003000C0
0C003000
0C003000
C0C30300
C0C30300
03000C00
03000C00
3030C0C0
3030C0C0
00000000
00000000
ENDCHAR
STARTCHAR wall
ENCODING 9618
SWIDTH 1846 0
DWIDTH 28 0
BBX 28 28 0 -6
BITMAP
33333330
33333330
CCCCCCC0
CCCCCCC0
33333330
33333330
CCCCCCC0
CCCCCCC0
33333330
33333330
CCCCCCC0
CCCCCCC0
33333330
33333330
CCCCCCC0
CCCCCCC0
33333330
33333330
CCCCCCC0
CCCCCCC0
33333330
33333330
CCCCCCC0
CCCCCCC0
33333330
33333330
CCCCCCC0
CCCCCCC0
ENDCHAR
STARTCHAR permawall
ENCODING 9619
SWIDTH 1846 0
DWIDTH 28 0
BBX 28 28 0 -6
BITMAP
3CFCF3F0
3CFCF3F0
FFCFFF30
FFCFFF30
F3FFCFF0
F3FFCFF0
3F3CFCF0
3F3CFCF0
FCFFF3F0
FCFFF3F0
CFCF3F30
CFCF3F30
FFFFFFF0
FFFFFFF0
3CFCF3F0
3CFCF3F0
FFCFFF30
FFCFFF30
F3FFCFF0
F3FFCFF0
3F3CFCF0
3F3CFCF0
FCFFF3F0
FCFFF3F0
CFCF3F30
CFCF3F30
FFFFFFF0
FFFFFFF0
ENDCHAR
STARTCHAR grate
ENCODING 9638
SWIDTH 1846 0
DWIDTH 28 0
BBX 28 28 0 -6
BITMAP
0C30C300
0C30C300
0C30C300
0C30C300
FFFFFFF0
FFFFFFF0
0C30C300
0C30C300
0C30C300
0C30C300
FFFFFFF0
FFFFFFF0
0C30C300
0C30C300
0C30C300
0C30C300
FFFFFFF0
FFFFFFF0
0C30C300
0C30C300
0C30C300
0C30C300
FFFFFFF0
FFFFFFF0
0C30C300
0C30C300
0C30C300
0C30C300
ENDCHAR
STARTCHAR item_food
ENCODING 9661
SWIDTH 1846 0
DWIDTH 28 0
BBX 28 28 0 -6
BITMAP
00000000
00000000
03FFC000
03FFC000
03FFFFC0
03FFFFC0
03F3FFC0
03F3FFC0
03C03F00
03C03F00
03C0FC00
03C0FC00
0FC3F000
0FC3F000
0F0FC000
0F0FC000
0F3F0000
0F3F0000
0FFC0000
0FFC0000
0FF00000
0FF00000
0FC00000
0FC00000
0F000000
0F000000
00000000
00000000
ENDCHAR
STARTCHAR item_detected
ENCODING 9674
SWIDTH 1846 0
DWIDTH 28 0
BBX 28 28 0 -6
BITMAP
00000000
00000000
003FC000
003FC000
00FFF000
00FFF000
00F0F000
00F0F000
03F0FC00
03F0FC00
03C03C00
03C03C00
0FC03F00
0FC03F00
03C03C00
03C03C00
03F0FC00
03F0FC00
00F0F000
00F0F000
00FFF000
00FFF000
003FC000
003FC000
00000000
00000000
00000000
00000000
ENDCHAR
STARTCHAR cloud_fading
ENCODING 9675
SWIDTH 1846 0
DWIDTH 28 0
BBX 28 28 0 -6
BITMAP
00000000
00000000
00000000
00000000
00000000
00000000
00000000
00000000
00000C00
00000C00
03C0C300
03C0C300
0C300CC0
0C300CC0
330330C0
330330C0
C0000030
C0000030
300000C0
300000C0
03CCCF00
03CCCF00
00000000
00000000
00000000
00000000
00000000
00000000
ENDCHAR
STARTCHAR cloud_terminal
ENCODING 9676
SWIDTH 1846 0
DWIDTH 28 0
BBX 28 28 0 -6
BITMAP
00000000
00000000
00000000
00000000
00000000
00000000
00000000
00000000
00000000
00000000
00000000
00000000
03300000
03300000
3C30CC00
3C30CC00
0CC0C300
0CC0C300
000300C0
000300C0
0000CF00
0000CF00
00000000
00000000
00000000
00000000
00000000
00000000
ENDCHAR
STARTCHAR item_rune
ENCODING 9677
SWIDTH 1846 0
DWIDTH 28 0
BBX 28 28 0 -6
BITMAP
00000000
00000000
00000000
00000000
003FC000
003FC000
03FFFC00
03FFFC00
0FC0FF00
0FC0FF00
0F03CF00
0F03CF00
3F03CFC0
3F03CFC0
3C0F03C0
3C0F03C0
3F0F0FC0
3F0F0FC0
0FFFFF00
0FFFFF00
03FFFC00
03FFFC00
00000000
00000000
00000000
00000000
00000000
00000000
ENDCHAR
STARTCHAR item_orb
ENCODING 9678
SWIDTH 1846 0
DWIDTH 28 0
BBX 28 28 0 -6
BITMAP
00000000
00000000
003FC000
003FC000
03FFFC00
03FFFC00
0FF0FF00
0FF0FF00
0FC03F00
0FC03F00
3F0F0FC0
3F0F0FC0
3F3FCFC0
3F3FCFC0
3F0F0FC0
3F0F0FC0
0FC03F00
0FC03F00
0FF0FF00
0FF0FF00
03FFFC00
03FFFC00
003FC000
003FC000
00000000
00000000
00000000
00000000
ENDCHAR
STARTCHAR floor_magic
ENCODING 9702
SWIDTH 1846 0
DWIDTH 28 0
BBX 28 28 0 -6
BITMAP
00000000
00000000
00000000
00000000
00000000
00000000
00000000
00000000
003FC000
003FC000
00F0F000
00F0F000
00C03000
00C03000
00C03000
00C03000
00F0F000
00F0F000
003FC000
003FC000
00000000
00000000
00000000
00000000
00000000
00000000
00000000
00000000
ENDCHAR
STARTCHAR door_open
ENCODING 9723
SWIDTH 1846 0
DWIDTH 28 0
BBX 28 28 0 -6
BITMAP
00000000
00000000
00000000
00000000
00000000
00000000
03FFFC00
03FFFC00
03000C00
03000C00
03000C00
03000C00
03000C00
03000C00
03000C00
03000C00
03000C00
03000C00
03000C00
03000C00
03FFFC00
03FFFC00
00000000
00000000
00000000
00000000
00000000
00000000
ENDCHAR
STARTCHAR door_closed
ENCODING 9724
SWIDTH 1846 0
DWIDTH 28 0
BBX 28 28 0 -6
BITMAP
00000000
00000000
00000000
00000000
00000000
00000000
00000000
00000000
00FFF000
00FFF000
00FFF000
00FFF000
00FFF000
00FFF000
00FFF000
00FFF000
00FFF000
00FFF000
00FFF000
00FFF000
00000000
00000000
00000000
00000000
00000000
00000000
00000000
00000000
ENDCHAR
STARTCHAR fired_burst
ENCODING 9728
SWIDTH 1846 0
DWIDTH 28 0
BBX 28 28 0 -6
BITMAP
00000000
00000000
000F0000
000F0000
030F0C00
030F0C00
0FC03F00
0FC03F00
030F0C00
030F0C00
003FC000
003FC000
3CFFF3C0
3CFFF3C0
3CFFF3C0
3CFFF3C0
003FC000
003FC000
030F0C00
030F0C00
0FC03F00
0FC03F00
030F0C00
030F0C00
000F0000
000F0000
00000000
00000000
ENDCHAR
STARTCHAR cloud
ENCODING 9729
SWIDTH 1846 0
DWIDTH 28 0
BBX 28 28 0 -6
BITMAP
00000000
00000000
00000000
00000000
0000F000
0000F000
03F3FC00
03F3FC00
0FFF0F00
0FFF0F00
0F0F3FC0
0F0F3FC0
3C0003C0
3C0003C0
3C0003C0
3C0003C0
0F0F0FC0
0F0F0FC0
03C3FF00
03C3FF00
03FFF000
03FFF000
00FC0000
00FC0000
00000000
00000000
00000000
00000000
ENDCHAR
STARTCHAR statue
ENCODING 9731
SWIDTH 1846 0
DWIDTH 28 0
BBX 28 28 0 -6
BITMAP
00000000
00000000
000F0000
000F0000
003FC000
003FC000
000F0000
000F0000
003FC000
003FC000
003FC000
003FC000
003FC000
003FC000
003FC000
003FC000
000F0000
000F0000
0FFFFF00
0FFFFF00
3FFFFFC0
3FFFFFC0
00000000
00000000
00000000
00000000
00000000
00000000
ENDCHAR
STARTCHAR fired_missile
ENCODING 9732
SWIDTH 1846 0
DWIDTH 28 0
BBX 28 28 0 -6
BITMAP
00000000
00000000
003C0000
003C0000
0C3CF000
0C3CF000
0F3FC000
0F3FC000
03FF0000
03FF0000
3FFFFC00
3FFFFC00
3FFFFC00
3FFFFC00
00FFC000
00FFC000
03FCF000
03FCF000
0F3C3000
0F3C3000
003C0000
003C0000
00000000
00000000
00000000
00000000
00000000
00000000
ENDCHAR
STARTCHAR item_skeleton
ENCODING 9760
SWIDTH 1846 0
DWIDTH 28 0
BBX 28 28 0 -6
BITMAP
00000000
00000000
00000000
00000000
03000F00
03000F00
0FC03FC0
0FC03FC0
3FF03FC0
3FF03FC0
0FFFFC00
0FFFFC00
003FF000
003FF000
003FC000
003FC000
03FFF000
03FFF000
3FF0FFC0
3FF0FFC0
3FC03FC0
3FC03FC0
03C00F00
03C00F00
00000000
00000000
00000000
00000000
ENDCHAR
STARTCHAR item_wand
ENCODING 9764
SWIDTH 1846 0
DWIDTH 28 0
BBX 28 28 0 -6
BITMAP
00030C00
00030C00
00000000
00000000
0030FC30
0030FC30
0003FF00
0003FF00
0003FF00
0003FF00
000FFC30
000FFC30
003FC000
003FC000
00FF0300
00FF0300
03FC0000
03FC0000
0FF00000
0FF00000
3FC00000
3FC00000
FF000000
FF000000
FC000000
FC000000
00000000
00000000
ENDCHAR
STARTCHAR item_rod
ENCODING 9765
SWIDTH 1846 0
DWIDTH 28 0
BBX 28 28 0 -6
BITMAP
00000000
00000000
0FC00000
0FC00000
3FF00000
3FF00000
3CF00000
3CF00000
3CFC0000
3CFC0000
3CFF0000
3CFF0000
003FC000
003FC000
000FF000
000FF000
0003FC00
0003FC00
0000FF00
0000FF00
00003FC0
00003FC0
00000FF0
00000FF0
000003F0
000003F0
00000000
00000000
ENDCHAR
STARTCHAR item_miscellany
ENCODING 9773
SWIDTH 1846 0
DWIDTH 28 0
BBX 28 28 0 -6
BITMAP
00000000
00000000
00000000
00000000
00000000
00000000
00FFFFF0
00FFFFF0
03C003F0
03C003F0
0F000CF0
0F000CF0
3FFFF3F0
3FFFF3F0
3C000CF0
3C000CF0
3FFFF3C0
3FFFF3C0
3C000F00
3C000F00
3FFFFC00
3FFFFC00
00000000
00000000
00000000
00000000
00000000
00000000
ENDCHAR
STARTCHAR cloud_weak
ENCODING 9788
SWIDTH 1846 0
DWIDTH 28 0
BBX 28 28 0 -6
BITMAP
00000000
00000000
00000000
00000000
00000000
00000000
00000000
00000000
0000FC00
0000FC00
03F3CF00
03F3CF00
0F3C0FC0
0F3C0FC0
3F0F3CF0
3F0F3CF0
F00000F0
F00000F0
3C0003C0
3C0003C0
0FFFFF00
0FFFFF00
00000000
00000000
00000000
00000000
00000000
00000000
ENDCHAR
STARTCHAR item_ring
ENCODING 9793
SWIDTH 1846 0
DWIDTH 28 0
BBX 28 28 0 -6
BITMAP
00000000
00000000
00000000
00000000
00000000
00000000
00000000
00000000
03FFFC00
03FFFC00
0FFFFF00
0FFFFF00
3FC03FC0
3FC03FC0
3F000FC0
3F000FC0
3FC03FC0
3FC03FC0
0FFFFF00
0FFFFF00
03FFFC00
03FFFC00
00000000
00000000
00000000
00000000
00000000
00000000
ENDCHAR
STARTCHAR item_amulet
ENCODING 9908
SWIDTH 1846 0
DWIDTH 28 0
BBX 28 28 0 -6
BITMAP
00000000
00000000
0F000F00
0F000F00
0F000F00
0F000F00
0F000F00
0F000F00
03C03C00
03C03C00
03C03C00
03C03C00
00F0F000
00F0F000
003FC000
003FC000
000F0000
000F0000
003FC000
003FC000
00F0F000
00F0F000
003FC000
003FC000
000F0000
000F0000
00000000
00000000
ENDCHAR
STARTCHAR wavy
ENCODING 9810
SWIDTH 1846 0
DWIDTH 28 0
BBX 28 28 0 -6
BITMAP
00000000
00000000
00000000
00000000
00000000
00000000
3C00F000
3C00F000
C3030C00
C3030C00
030C0C30
030C0C30
00F003C0
00F003C0
3C00F000
3C00F000
C3030C00
C3030C00
030C0C30
030C0C30
00F003C0
00F003C0
00000000
00000000
00000000
00000000
00000000
00000000
ENDCHAR
STARTCHAR item_armour
ENCODING 9813
SWIDTH 1846 0
DWIDTH 28 0
BBX 28 28 0 -6
BITMAP
00000000
00000000
FFF3FFC0
FFF3FFC0
FFFFFFC0
FFFFFFC0
0F003C00
0F003C00
0F0FFFC0
0F0FFFC0
0F0F03C0
0F0F03C0
0FCF03C0
0FCF03C0
03CF03C0
03CF03C0
03C3CF00
03C3CF00
0FFFFC00
0FFFFC00
3F003F00
3F003F00
3C000F00
3C000F00
3FFFFF00
3FFFFF00
00000000
00000000
ENDCHAR
STARTCHAR tree
ENCODING 9827
SWIDTH 1846 0
DWIDTH 28 0
BBX 28 28 0 -6
BITMAP
00000000
00000000
003F0000
003F0000
00FFC000
00FFC000
00FFC000
00FFC000
00FFC000
00FFC000
0FFFFC00
0FFFFC00
3FFFFF00
3FFFFF00
3FFFFF00
3FFFFF00
3FFFFF00
3FFFFF00
0F3F3C00
0F3F3C00
003F0000
003F0000
003F0000
003F0000
00FFC000
00FFC000
00000000
00000000
ENDCHAR
STARTCHAR char9830
ENCODING 9830
SWIDTH 1846 0
DWIDTH 28 0
BBX 28 28 0 -6
BITMAP
00000000
00000000
000F0000
000F0000
003FC000
003FC000
00FFF000
00FFF000
03FFFC00
03FFFC00
0FFFFF00
0FFFFF00
3FFFFFC0
3FFFFFC0
3FFFFFC0
3FFFFFC0
0FFFFF00
0FFFFF00
03FFFC00
03FFFC00
00FFF000
00FFF000
003FC000
003FC000
000F0000
000F0000
00000000
00000000
ENDCHAR
STARTCHAR fountain
ENCODING 9832
SWIDTH 1846 0
DWIDTH 28 0
BBX 28 28 0 -6
BITMAP
00000000
00000000
00000000
00000000
00CF3000
00CF3000
0330CC00
0330CC00
000F0000
000F0000
0CCF3300
0CCF3300
000F0000
000F0000
03FFFC00
03FFFC00
00FFF000
00FFF000
03FFFC00
03FFFC00
3FFFFFC0
3FFFFFC0
00000000
00000000
00000000
00000000
00000000
00000000
ENDCHAR
STARTCHAR item_scroll
ENCODING 9852
SWIDTH 1846 0
DWIDTH 28 0
BBX 28 28 0 -6
BITMAP
00000000
00000000
0FFFFF00
0FFFFF00
3FFFFFC0
3FFFFFC0
3C003C00
3C003C00
3C3F3C00
3C3F3C00
3F3F3F00
3F3F3F00
0F000F00
0F000F00
0F0FCF00
0F0FCF00
0FC00FC0
0FC00FC0
03CFF3C0
03CFF3C0
03C003C0
03C003C0
0FFFFFC0
0FFFFFC0
03FFFF00
03FFFF00
00000000
00000000
ENDCHAR
STARTCHAR item_book
ENCODING 9854
SWIDTH 1846 0
DWIDTH 28 0
BBX 28 28 0 -6
BITMAP
00000000
00000000
0F000F00
0F000F00
3FF0FFC0
3FF0FFC0
3FFFFFC0
3FFFFFC0
3F3FCFC0
3F3FCFC0
3F0F0FC0
3F0F0FC0
3F0F0FC0
3F0F0FC0
3F0F0FC0
3F0F0FC0
3F0F0FC0
3F0F0FC0
3FFFFFC0
3FFFFFC0
3FFFFFC0
3FFFFFC0
003FC000
003FC000
00000000
00000000
00000000
00000000
ENDCHAR
STARTCHAR item_weapon
ENCODING 9876
SWIDTH 1846 0
DWIDTH 28 0
BBX 28 28 0 -6
BITMAP
00000000
00000000
00003F00
00003F00
0000FF00
0000FF00
0003FF00
0003FF00
000FFC00
000FFC00
003FF000
003FF000
0CFFC000
0CFFC000
0FFF0000
0FFF0000
0FFC0000
0FFC0000
3FF00000
3FF00000
3FFC0000
3FFC0000
3F000000
3F000000
00000000
00000000
00000000
00000000
ENDCHAR
STARTCHAR item_staff
ENCODING 9877
SWIDTH 1846 0
DWIDTH 28 0
BBX 28 28 0 -6
BITMAP
00000000
00000000
00000000
00000000
000FC000
000FC000
003FF000
003FF000
003FF000
003FF000
000FC000
000FC000
000FC000
000FC000
000FC000
000FC000
000FC000
000FC000
000FC000
000FC000
000FC000
000FC000
000FC000
000FC000
00000000
00000000
00000000
00000000
ENDCHAR
STARTCHAR item_potion
ENCODING 9879
SWIDTH 1846 0
DWIDTH 28 0
BBX 28 28 0 -6
BITMAP
00000000
00000000
00FFF000
00FFF000
003FC000
003FC000
003FC000
003FC000
00FFF000
00FFF000
03FFFC00
03FFFC00
0FFFFF00
0FFFFF00
0FFFFF00
0FFFFF00
0FFFFF00
0FFFFF00
03FFFC00
03FFFC00
00FFF000
00FFF000
00000000
00000000
00000000
00000000
00000000
00000000
ENDCHAR
STARTCHAR teleporter
ENCODING 9883
SWIDTH 1846 0
DWIDTH 28 0
BBX 28 28 0 -6
BITMAP
03FFF000
03FFF000
3FC0FF00
3FC0FF00
FC000FC0
FC000FC0
3FC0FF00
3FC0FF00
03FFF000
03FFF000
3FC0FF00
3FC0FF00
FC000FC0
FC000FC0
3FC0FF00
3FC0FF00
03FFF000
03FFF000
3FC0FF00
3FC0FF00
FC000FC0
FC000FC0
3FC0FF00
3FC0FF00
03FFF000
03FFF000
00000000
00000000
ENDCHAR
STARTCHAR trap
ENCODING 9888
SWIDTH 1846 0
DWIDTH 28 0
BBX 28 28 0 -6
BITMAP
00000000
00000000
00000000
00000000
00000000
00000000
00000000
00000000
00000000
00000000
0FFFFF00
0FFFFF00
0F000F00
0F000F00
3C30C3C0
3C30C3C0
3C30C3C0
3C30C3C0
F0FFF0F0
F0FFF0F0
FFFFFFF0
FFFFFFF0
00000000
00000000
00000000
00000000
00000000
00000000
ENDCHAR
STARTCHAR fired_bolt
ENCODING 9735
SWIDTH 1846 0
DWIDTH 28 0
BBX 28 28 0 -6
BITMAP
0000FC00
0000FC00
0003F000
0003F000
000FC000
000FC000
003C0000
003C0000
00FFFC00
00FFFC00
0000FC00
0000FC00
0003F000
0003F000
000FC000
000FC000
003C0000
003C0000
00FFFC00
00FFFC00
0000FC00
0000FC00
0003F000
0003F000
000FC000
000FC000
003C0000
003C0000
ENDCHAR
STARTCHAR item_corpse
ENCODING 9904
SWIDTH 1846 0
DWIDTH 28 0
BBX 28 28 0 -6
BITMAP
00000000
00000000
00000000
00000000
000F0000
000F0000
000F0000
000F0000
00FFF000
00FFF000
000F0000
000F0000
000F0000
000F0000
000F0000
000F0000
003FC000
003FC000
00FFF000
00FFF000
03FFFC00
03FFFC00
03FFFC00
03FFFC00
00000000
00000000
00000000
00000000
ENDCHAR
STARTCHAR transporter
ENCODING 9921
SWIDTH 1846 0
DWIDTH 28 0
BBX 28 28 0 -6
BITMAP
03FFF000
03FFF000
3FC0FF00
3FC0FF00
FC000FC0
FC000FC0
3FC0FF00
3FC0FF00
03FFF000
03FFF000
3FC0FF00
3FC0FF00
FC000FC0
FC000FC0
3FC0FF00
3FC0FF00
03FFF000
03FFF000
3FC0FF00
3FC0FF00
FC000FC0
FC000FC0
3FC0FF00
3FC0FF00
03FFF000
03FFF000
00000000
00000000
ENDCHAR
STARTCHAR transporter_landing
ENCODING 9923
SWIDTH 1846 0
DWIDTH 28 0
BBX 28 28 0 -6
BITMAP
00000000
00000000
00000000
00000000
00000000
00000000
00000000
00000000
03FFF000
03FFF000
3FC0FF00
3FC0FF00
FC3F0FC0
FC3F0FC0
3FC0FF00
3FC0FF00
FC3F0FC0
FC3F0FC0
3FC0FF00
3FC0FF00
FC3F0FC0
FC3F0FC0
3FC0FF00
3FC0FF00
03FFF000
03FFF000
00000000
00000000
ENDCHAR
STARTCHAR altar
ENCODING 10014
SWIDTH 1846 0
DWIDTH 28 0
BBX 28 28 0 -6
BITMAP
00000000
00000000
00000000
00000000
00000000
00000000
00000000
00000000
00000000
00000000
03FFFC00
03FFFC00
00F0F000
00F0F000
00F0F000
00F0F000
00F0F000
00F0F000
0FFFFF00
0FFFFF00
3FFFFFC0
3FFFFFC0
00000000
00000000
00000000
00000000
00000000
00000000
ENDCHAR
STARTCHAR explosion
ENCODING 10037
SWIDTH 1846 0
DWIDTH 28 0
BBX 28 28 0 -6
BITMAP
000C0000
000C0000
30CCC300
30CCC300
0F3F3C00
0F3F3C00
0FFFFC00
0FFFFC00
33FFF300
33FFF300
0FFFFC00
0FFFFC00
FFFFFFC0
FFFFFFC0
0FFFFC00
0FFFFC00
33FFF300
33FFF300
0FFFFC00
0FFFFC00
0F3F3C00
0F3F3C00
30CCC300
30CCC300
000C0000
000C0000
00000000
00000000
ENDCHAR
STARTCHAR fired_zap
ENCODING 10039
SWIDTH 1846 0
DWIDTH 28 0
BBX 28 28 0 -6
BITMAP
FC0FC030
FC0FC030
3C03C3F0
3C03C3F0
3F0F03F0
3F0F03F0
033C3F00
033C3F00
03FF3000
03FF3000
F03FFC00
F03FFC00
FCFFFF30
FCFFFF30
CFFFF3F0
CFFFF3F0
03FFC0F0
03FFC0F0
00CFFC00
00CFFC00
0FC3CC00
0FC3CC00
FC0F0FC0
FC0F0FC0
FC3C03C0
FC3C03C0
C03F03F0
C03F03F0
ENDCHAR
STARTCHAR invis_exposed
ENCODING 11822
SWIDTH 1846 0
DWIDTH 28 0
BBX 28 28 0 -6
BITMAP
00000000
00000000
03FFFC00
03FFFC00
0FC03F00
0FC03F00
3F000F00
3F000F00
0FC00000
0FC00000
00FC0000
00FC0000
003F0000
003F0000
00FC0000
00FC0000
00000000
00000000
003F0000
003F0000
000FC000
000FC000
00000000
00000000
00000000
00000000
00000000
00000000
ENDCHAR
ENDFONT
